<svg xmlns="http://www.w3.org/2000/svg" xmlns:xlink="http://www.w3.org/1999/xlink" version="1.1"><metadata>Created by FontForge 20170731 at Wed May 11 16:00:10 2011 By Aleksey,,, (c) 2011 Klim Type Foundry. All rights reserved.</metadata><defs><font id="Calibre-Semibold" horiz-adv-x="520"><font-face x-height="447" ascent="1900" bbox="-120 -225 957 906" cap-height="614" descent="-350" font-family="Calibre Semibold" font-stretch="normal" font-weight="600" panose-1="2 11 7 3 3 2 2 6 2 3" underline-position="-160" underline-thickness="30" unicode-range="U+0020-FB02" units-per-em="1000"/><glyph d="M607 647v-105q-17 12 -44 12q-28 0 -44.5 -16t-16.5 -46v-45h93v-100h-93v-347h-122v347h-169v-347h-122v347h-73v100h73v47q0 75 43 117t115 42q42 0 69 -12v-105q-17 12 -44 12q-28 0 -44.5 -15.5t-16.5 -44.5v-41h169v53q0 75 43 117t115 42q42 0 69 -12z" glyph-name="f_f" horiz-adv-x="617" unicode="ff"/><glyph glyph-name=".notdef" horiz-adv-x="608"/><glyph glyph-name=".null" horiz-adv-x="0"/><glyph glyph-name="nonmarkingreturn" horiz-adv-x="333"/><glyph glyph-name="space" horiz-adv-x="212"/><glyph d="M30 70q0 33 22.5 55.5t55.5 22.5t56 -22.5t23 -55.5q0 -32 -23 -54.5t-56 -22.5t-55.5 22.5t-22.5 54.5zM63 198l-30 416h151l-30 -416h-91z" glyph-name="exclam" horiz-adv-x="217" unicode="!"/><glyph d="M38 366v248h101v-248h-101zM188 366v248h101v-248h-101z" glyph-name="quotedbl" horiz-adv-x="327" unicode="&quot;"/><glyph d="M552 245l-18 -86h-104l-38 -159h-99l38 159h-118l-38 -159h-97l38 159h-96l19 86h97l30 124h-102l18 86h104l38 159h98l-39 -159h118l39 159h98l-38 -159h96l-19 -86h-97l-30 -124h102zM263 369l-30 -124h118l30 124h-118z" glyph-name="numbersign" horiz-adv-x="616" unicode="#"/><glyph d="M205 -89v97q-74 12 -121.5 56.5t-60.5 115.5h124q25 -74 114 -74q43 0 68 19t25 52q0 28 -17 43.5t-56 24.5l-98 24q-146 34 -146 163q0 70 46 117.5t122 57.5v91h106v-95q65 -15 104.5 -56.5t52.5 -104.5h-119q-23 67 -106 67q-40 0 -63.5 -18.5t-23.5 -49.5 q0 -47 64 -64l104 -25q150 -37 150 -168q0 -71 -44.5 -117.5t-118.5 -58.5v-97h-106z" glyph-name="dollar" horiz-adv-x="502" unicode="$"/><glyph d="M103 0l380 614h84l-380 -614h-84zM110 481q0 -24 17 -41t42 -17q24 0 41.5 17t17.5 41q0 25 -17.5 42.5t-41.5 17.5q-25 0 -42 -17.5t-17 -42.5zM643 133q0 -59 -41.5 -101t-100.5 -42t-100.5 42t-41.5 101t41.5 100t100.5 41t100.5 -41t41.5 -100zM311 481 q0 -59 -41.5 -100t-100.5 -41t-100.5 41t-41.5 100t41.5 101t100.5 42t100.5 -42t41.5 -101zM560 133q0 24 -17 41t-42 17t-42.5 -17t-17.5 -41q0 -25 17.5 -42.5t42.5 -17.5t42 17.5t17 42.5z" glyph-name="percent" horiz-adv-x="670" unicode="%"/><glyph d="M467 465h-122q0 25 -16 43t-45 18t-49 -18.5t-20 -47.5q0 -16 8.5 -33.5t17.5 -28.5t27 -30l138 -153q17 50 18 102h112q-1 -100 -54 -186l118 -131h-150l-43 47q-73 -57 -163 -57q-94 0 -151.5 53t-57.5 139q0 51 27.5 94t73.5 68q-40 55 -40 114q0 75 52.5 120.5 t135.5 45.5t132 -45t51 -114zM245 89q53 0 95 31l-138 150q-52 -27 -52 -88q0 -41 25.5 -67t69.5 -26z" glyph-name="ampersand" horiz-adv-x="607" unicode="&amp;"/><glyph d="M38 366v248h106v-248h-106z" glyph-name="quotesingle" horiz-adv-x="182" unicode="'"/><glyph d="M30 283q0 139 74 237.5t201 129.5v-125q-71 -19 -114 -83t-43 -159t43 -159t114 -83v-125q-127 31 -201 129.5t-74 237.5z" glyph-name="parenleft" horiz-adv-x="325" unicode="("/><glyph d="M295 283q0 -139 -74 -237.5t-201 -129.5v125q71 19 114 83t43 159t-43 159t-114 83v125q127 -31 201 -129.5t74 -237.5z" glyph-name="parenright" horiz-adv-x="325" unicode=")"/><glyph d="M109 500l-82 47l32 56l82 -48v95h64v-95l82 48l32 -56l-83 -47l83 -47l-32 -56l-82 48v-95h-64v95l-82 -48l-32 56z" glyph-name="asterisk" horiz-adv-x="346" unicode="*"/><glyph d="M233 515h95v-168h168v-96h-168v-167h-95v167h-169v96h169v168z" glyph-name="plus" horiz-adv-x="560" unicode="+"/><glyph d="M14 -109l73 112q-26 5 -43 24t-17 48q0 33 22.5 54.5t55.5 21.5q34 0 56 -22.5t22 -62.5q0 -42 -32 -90l-57 -85h-80z" glyph-name="comma" horiz-adv-x="210" unicode=","/><glyph d="M38 208v108h241v-108h-241z" glyph-name="hyphen" horiz-adv-x="317" unicode="-"/><glyph d="M27 73q0 34 22.5 56.5t55.5 22.5t55.5 -22.5t22.5 -56.5t-22.5 -57t-55.5 -23t-55.5 23t-22.5 57z" glyph-name="period" horiz-adv-x="210" unicode="."/><glyph d="M5 -84l248 734h115l-248 -734h-115z" glyph-name="slash" horiz-adv-x="373" unicode="/"/><glyph d="M274 -10q-108 0 -175 88t-67 229t67 229t175 88t175 -88t67 -229t-67 -229t-175 -88zM274 510q-59 0 -88 -56t-29 -147t29 -147t88 -56t88 56t29 147t-29 147t-88 56z" glyph-name="zero" horiz-adv-x="548" unicode="0"/><glyph d="M285 614v-614h-125v468l-143 -71v125l187 92h81z" glyph-name="one" horiz-adv-x="345" unicode="1"/><glyph d="M316 436q0 33 -21 53.5t-57 20.5q-37 0 -58.5 -23.5t-23.5 -61.5h-132q9 88 66.5 143.5t146.5 55.5q96 0 151 -49.5t55 -133.5q0 -36 -20 -74.5t-39.5 -61t-62.5 -67.5l-118 -127h247v-111h-425v83l195 205q67 74 82 101q14 25 14 47z" glyph-name="two" horiz-adv-x="479" unicode="2"/><glyph d="M189 263v99h35q41 0 66.5 20t25.5 57q0 33 -21.5 54.5t-58.5 21.5q-40 0 -63.5 -23.5t-26.5 -60.5h-124q9 84 67 138.5t148 54.5q92 0 146 -49.5t54 -129.5q0 -44 -21 -80.5t-54 -52.5q41 -18 63 -54t22 -80q0 -82 -57 -135t-153 -53q-98 0 -160 55t-67 145h126 q5 -42 30.5 -66.5t69.5 -24.5q39 0 64 22.5t25 58.5q0 38 -27 60.5t-70 22.5h-39z" glyph-name="three" horiz-adv-x="474" unicode="3"/><glyph d="M358 614l-200 -387h136v127h114v-127h93v-105h-93v-122h-114v122h-273v92l212 400h125z" glyph-name="four" unicode="4"/><glyph d="M247 300q-52 0 -88 -41h-100v355h360v-111h-256v-125q41 28 99 28q89 0 143.5 -57t54.5 -149q0 -94 -58.5 -152t-152.5 -58q-96 0 -156 54.5t-67 145.5h124q5 -42 30.5 -66.5t68.5 -24.5q41 0 66 28t25 73q0 44 -25 72t-68 28z" glyph-name="five" horiz-adv-x="486" unicode="5"/><glyph d="M474 459h-124q-19 60 -81 60q-53 0 -86 -52t-33 -120v-9q15 29 50 47t79 18q90 0 145 -58.5t55 -143.5q0 -90 -58.5 -150.5t-158.5 -60.5q-125 0 -186 111q-43 75 -43 193q0 146 63.5 238t171.5 92q85 0 137 -43t69 -122zM161 198q0 -46 28 -74.5t74 -28.5 q44 0 72.5 28.5t28.5 74.5q0 48 -28 77t-73 29q-46 0 -74 -29t-28 -77z" glyph-name="six" horiz-adv-x="510" unicode="6"/><glyph d="M431 523l-201 -523h-129l197 502h-282v112h415v-91z" glyph-name="seven" horiz-adv-x="457" unicode="7"/><glyph d="M250 91q42 0 69.5 23.5t27.5 63.5t-27.5 63.5t-69.5 23.5q-43 0 -70.5 -23.5t-27.5 -63.5t27.5 -63.5t70.5 -23.5zM250 369q35 0 59 21t24 56q0 36 -24 57.5t-59 21.5q-36 0 -60 -21.5t-24 -57.5q0 -35 24 -56t60 -21zM250 -10q-95 0 -158 48t-63 130q0 56 30.5 95 t76.5 52q-40 17 -64 53t-24 83q0 81 58.5 127t143.5 46t143 -46t58 -127q0 -47 -24 -83t-64 -53q46 -13 76.5 -52t30.5 -95q0 -82 -63 -130t-157 -48z" glyph-name="eight" horiz-adv-x="499" unicode="8"/><glyph d="M36 155h124q19 -60 81 -60q53 0 86 52t33 120v9q-15 -29 -50 -47t-79 -18q-90 0 -145 58.5t-55 143.5q0 90 58.5 150.5t158.5 60.5q125 0 186 -111q43 -75 43 -193q0 -146 -63.5 -238t-171.5 -92q-85 0 -137 43t-69 122zM349 416q0 46 -28 74.5t-74 28.5 q-44 0 -72.5 -28.5t-28.5 -74.5q0 -48 28 -77t73 -29q46 0 74 29t28 77z" glyph-name="nine" horiz-adv-x="510" unicode="9"/><glyph d="M27 73q0 34 22.5 56.5t55.5 22.5t55.5 -22.5t22.5 -56.5t-22.5 -57t-55.5 -23t-55.5 23t-22.5 57zM27 358q0 34 22.5 56.5t55.5 22.5t55.5 -22.5t22.5 -56.5t-22.5 -57t-55.5 -23t-55.5 23t-22.5 57z" glyph-name="colon" horiz-adv-x="210" unicode=":"/><glyph d="M14 -109l73 112q-26 5 -43 24t-17 48q0 33 22.5 54.5t55.5 21.5q34 0 56 -22.5t22 -62.5q0 -42 -32 -90l-57 -85h-80zM27 358q0 34 22.5 56.5t55.5 22.5t55.5 -22.5t22.5 -56.5t-22.5 -57t-55.5 -23t-55.5 23t-22.5 57z" glyph-name="semicolon" horiz-adv-x="210" unicode=";"/><glyph d="M55 236v123l328 152v-108l-240 -106l240 -105v-109z" glyph-name="less" horiz-adv-x="441" unicode="&lt;"/><glyph d="M73 175v87h431v-87h-431zM73 338v88h431v-88h-431z" glyph-name="equal" horiz-adv-x="576" unicode="="/><glyph d="M386 359v-123l-329 -153v109l240 105l-240 106v108z" glyph-name="greater" horiz-adv-x="441" unicode="&gt;"/><glyph d="M155 70q0 33 23 55.5t56 22.5t56 -22.5t23 -55.5q0 -32 -23 -54.5t-56 -22.5t-56 22.5t-23 54.5zM436 443q0 -16 -3 -30.5t-10 -29t-12 -24.5t-17.5 -25t-18 -21.5t-21 -23t-19.5 -20.5q-36 -38 -36 -71h-123q2 36 13.5 60t42.5 60q5 6 25 27.5t27 30.5t15 26t8 34 q0 33 -20.5 53.5t-56.5 20.5q-37 0 -58 -24t-23 -61h-132q9 88 67 143.5t149 55.5q94 0 148.5 -49t54.5 -132z" glyph-name="question" horiz-adv-x="456" unicode="?"/><glyph d="M574 386l-41 -236q-7 -47 30 -47q46 0 74 46t28 125q0 104 -72 164t-186 60q-133 0 -217 -85.5t-84 -222.5q0 -61 18.5 -109t48.5 -78t70.5 -49.5t81 -27.5t83.5 -8q116 0 224 48v-73q-94 -47 -224 -47q-76 0 -143 20.5t-122 60.5t-87 108t-32 155q0 161 107 271t276 110 q148 0 242 -84.5t94 -212.5q0 -117 -59 -180t-144 -63q-76 0 -112 53q-14 -24 -41 -38t-56 -14q-62 0 -99 43t-37 108q0 86 52.5 149t132.5 63q28 0 51.5 -10.5t33.5 -26.5l6 28h103zM430 166l18 100q-5 16 -20.5 26.5t-36.5 10.5q-38 0 -62.5 -33t-24.5 -79q0 -29 15 -47.5 t43 -18.5q42 0 68 41z" glyph-name="at" horiz-adv-x="768" unicode="@"/><glyph d="M250 614h127l235 -614h-130l-55 148h-230l-54 -148h-128zM312 460l-75 -204h150z" glyph-name="A" horiz-adv-x="627" unicode="A"/><glyph d="M420 317q44 -14 72 -53.5t28 -89.5q0 -84 -54.5 -129t-151.5 -45h-255v614h235q98 0 152.5 -43t54.5 -124q0 -48 -23 -82.5t-58 -47.5zM182 362h104q93 0 93 73q0 71 -93 71h-104v-144zM182 262v-154h121q44 0 68 20.5t24 56.5t-23.5 56.5t-68.5 20.5h-121z" glyph-name="B" horiz-adv-x="553" unicode="B"/><glyph d="M29 307q0 140 81 228.5t205 88.5q106 0 172.5 -56.5t84.5 -151.5h-127q-35 94 -130 94q-72 0 -114 -56.5t-42 -146.5q0 -89 42 -146t114 -57q95 0 130 95h127q-18 -96 -84.5 -152.5t-172.5 -56.5q-124 0 -205 88.5t-81 228.5z" glyph-name="C" horiz-adv-x="599" unicode="C"/><glyph d="M186 113h85q87 0 134 52t47 142q0 91 -47 143t-134 52h-85v-389zM59 0v614h217q139 0 221 -83t82 -224t-82 -224t-221 -83h-217z" glyph-name="D" horiz-adv-x="609" unicode="D"/><glyph d="M59 614h417v-112h-291v-134h264v-109h-264v-146h291v-113h-417v614z" glyph-name="E" horiz-adv-x="516" unicode="E"/><glyph d="M186 0h-127v614h409v-112h-282v-156h261v-111h-261v-235z" glyph-name="F" horiz-adv-x="501" unicode="F"/><glyph d="M467 220h-117v102h242v-54q0 -126 -74.5 -202t-192.5 -76q-129 0 -212.5 88.5t-83.5 228.5t83.5 228.5t209.5 88.5q108 0 175 -56.5t85 -151.5h-129q-36 94 -131 94q-75 0 -119 -56.5t-44 -146.5q0 -91 45 -147.5t121 -56.5q58 0 94.5 31.5t47.5 85.5z" glyph-name="G" horiz-adv-x="621" unicode="G"/><glyph d="M465 614h128v-614h-128v258h-278v-258h-128v614h128v-244h278v244z" glyph-name="H" horiz-adv-x="652" unicode="H"/><glyph d="M187 614v-614h-128v614h128z" glyph-name="I" horiz-adv-x="245" unicode="I"/><glyph d="M15 195h132q8 -89 90 -89q95 0 95 117v391h128v-392q0 -114 -60 -173t-162 -59q-101 0 -159 56t-64 149z" glyph-name="J" horiz-adv-x="509" unicode="J"/><glyph d="M187 614v-276l231 276h155l-234 -275l243 -339h-155l-182 251l-58 -69v-182h-128v614h128z" glyph-name="K" horiz-adv-x="593" unicode="K"/><glyph d="M59 0v614h128v-501h286v-113h-414z" glyph-name="L" horiz-adv-x="507" unicode="L"/><glyph d="M418 0h-87l-152 401v-401h-120v614h152l164 -433l163 433h150v-614h-121v401z" glyph-name="M" horiz-adv-x="747" unicode="M"/><glyph d="M573 614v-614h-101l-290 409v-409h-123v614h120l271 -388v388h123z" glyph-name="N" horiz-adv-x="632" unicode="N"/><glyph d="M610 307q0 -138 -81.5 -227.5t-209.5 -89.5t-209 89.5t-81 227.5q0 139 81 228t209 89t209.5 -89.5t81.5 -227.5zM481 307q0 91 -44.5 147t-117.5 56q-72 0 -116 -56t-44 -147t44 -147t116 -56q73 0 117.5 56t44.5 147z" glyph-name="O" horiz-adv-x="640" unicode="O"/><glyph d="M309 213h-123v-213h-127v614h250q99 0 157.5 -52.5t58.5 -148.5t-58.5 -148t-157.5 -52zM399 413q0 43 -25 67.5t-73 24.5h-115v-183h115q48 0 73 25t25 66z" glyph-name="P" horiz-adv-x="552" unicode="P"/><glyph d="M494 -43l-50 62q-56 -29 -125 -29q-128 0 -209 89.5t-81 227.5q0 139 81 228t209 89t209.5 -89.5t81.5 -227.5q0 -135 -83 -226l49 -60zM481 307q0 91 -44.5 147t-117.5 56q-72 0 -116 -56t-44 -147t44 -148.5t116 -57.5q31 0 53 7l-50 63l82 63l48 -60q29 50 29 133z" glyph-name="Q" horiz-adv-x="639" unicode="Q"/><glyph d="M253 229h-67v-229h-127v614h253q99 0 157 -51t58 -144q0 -72 -37 -118.5t-103 -62.5l162 -238h-144zM186 505v-171h118q47 0 72 23t25 62q0 40 -25 63t-72 23h-118z" glyph-name="R" horiz-adv-x="563" unicode="R"/><glyph d="M17 175h132q25 -79 122 -79q47 0 75 20.5t28 56.5q0 28 -17.5 44t-57.5 25l-110 25q-156 35 -156 168q0 83 62 136t159 53q102 0 163.5 -48.5t77.5 -129.5h-127q-25 73 -113 73q-44 0 -70.5 -19.5t-26.5 -52.5q0 -51 69 -67l112 -26q161 -37 161 -173q0 -87 -64 -139 t-164 -52q-103 0 -171 49t-84 136z" glyph-name="S" horiz-adv-x="530" unicode="S"/><glyph d="M26 502v112h524v-112h-198v-502h-129v502h-197z" glyph-name="T" horiz-adv-x="575" unicode="T"/><glyph d="M305 -10q-117 0 -186 66.5t-69 190.5v367h128v-354q0 -155 127 -155t127 155v354h128v-367q0 -124 -68.5 -190.5t-186.5 -66.5z" glyph-name="U" horiz-adv-x="610" unicode="U"/><glyph d="M369 0h-124l-230 614h135l159 -444l159 444h132z" glyph-name="V" horiz-adv-x="614" unicode="V"/><glyph d="M349 614h100l106 -413l101 413h126l-160 -614h-117l-108 405l-108 -405h-117l-160 614h129l100 -413z" glyph-name="W" horiz-adv-x="794" unicode="W"/><glyph d="M569 614l-203 -299l213 -315h-144l-144 213l-143 -213h-141l213 313l-203 301h145l132 -199l135 199h140z" glyph-name="X" horiz-adv-x="586" unicode="X"/><glyph d="M299 354l148 260h135l-223 -381v-233h-127v233l-221 381h139z" glyph-name="Y" horiz-adv-x="593" unicode="Y"/><glyph d="M514 113v-113h-474v93l308 409h-303v112h465v-92l-306 -409h310z" glyph-name="Z" horiz-adv-x="554" unicode="Z"/><glyph d="M175 543v-520h127v-107h-243v734h243v-107h-127z" glyph-name="bracketleft" horiz-adv-x="322" unicode="["/><glyph d="M120 650l248 -734h-115l-248 734h115z" glyph-name="backslash" horiz-adv-x="373" unicode="\"/><glyph d="M147 23v520h-127v107h243v-734h-243v107h127z" glyph-name="bracketright" horiz-adv-x="322" unicode="]"/><glyph d="M148 614h113l138 -220h-116l-78 126l-79 -126h-116z" glyph-name="asciicircum" horiz-adv-x="409" unicode="^"/><glyph d="M20 -143v101h341v-101h-341z" glyph-name="underscore" horiz-adv-x="381" unicode="_"/><glyph d="M351 508h-113l-89 142h123z" glyph-name="grave" horiz-adv-x="500" unicode="`"/><glyph d="M421 0h-119v24q-12 -12 -43 -22t-66 -10q-71 0 -118.5 39t-47.5 106q0 63 49.5 103t123.5 40q28 0 58 -8t44 -18v33q0 30 -18.5 49.5t-54.5 19.5q-50 0 -66 -42h-118q10 62 61.5 102.5t126.5 40.5q89 0 138.5 -45.5t49.5 -126.5v-285zM302 122v32q-8 18 -30.5 28.5 t-50.5 10.5q-32 0 -55.5 -14t-23.5 -41t23 -41t56 -14q28 0 50.5 10.5t30.5 28.5z" glyph-name="a" horiz-adv-x="468" unicode="a"/><glyph d="M178 37v-37h-125v650h125v-240q16 19 47 33t65 14q94 0 148.5 -67t54.5 -167t-54.5 -166.5t-148.5 -66.5q-34 0 -65 14t-47 33zM178 297v-147q11 -23 33.5 -37.5t50.5 -14.5q49 0 78 35t29 90t-29 90.5t-78 35.5q-27 0 -50 -14.5t-34 -37.5z" glyph-name="b" horiz-adv-x="519" unicode="b"/><glyph d="M26 223q0 104 60 169t155 65q82 0 134 -44t62 -117h-122q-5 26 -24.5 40.5t-49.5 14.5q-42 0 -67 -35t-25 -93q0 -57 25 -92t67 -35q30 0 49.5 14.5t24.5 40.5h122q-10 -73 -61.5 -117t-134.5 -44q-95 0 -155 65t-60 168z" glyph-name="c" horiz-adv-x="459" unicode="c"/><glyph d="M341 0v37q-16 -19 -47 -33t-65 -14q-94 0 -148.5 66.5t-54.5 166.5t54.5 167t148.5 67q34 0 65 -14t47 -33v240h125v-650h-125zM341 150v147q-11 23 -34 37.5t-50 14.5q-49 0 -78 -35.5t-29 -90.5t29 -90t78 -35q28 0 50.5 14.5t33.5 37.5z" glyph-name="d" horiz-adv-x="519" unicode="d"/><glyph d="M326 146h115q-12 -73 -63.5 -114.5t-134.5 -41.5q-97 0 -157 64.5t-60 168.5q0 101 60.5 167.5t154.5 66.5q96 0 149.5 -60.5t53.5 -161.5v-38h-298q3 -50 29 -78.5t68 -28.5q68 0 83 56zM242 356q-76 0 -93 -84h173q-1 37 -22 60.5t-58 23.5z" glyph-name="e" horiz-adv-x="469" unicode="e"/><glyph d="M316 647v-105q-17 12 -44 12q-61 0 -61 -62v-45h93v-100h-93v-347h-122v347h-73v100h73v53q0 75 43 117t115 42q42 0 69 -12z" glyph-name="f" horiz-adv-x="326" unicode="f"/><glyph d="M339 30v26q-38 -46 -110 -46q-93 0 -148 65t-55 159q0 93 55 158t148 65q71 0 110 -45v35h123v-398q0 -111 -60 -167.5t-159 -56.5q-87 0 -142.5 42t-65.5 117h120q15 -63 88 -63q96 0 96 109zM339 161v146q-28 46 -84 46q-49 0 -77 -33t-28 -86t28 -86.5t77 -33.5 q27 0 49.5 13.5t34.5 33.5z" glyph-name="g" horiz-adv-x="516" unicode="g"/><glyph d="M54 0v650h124v-244q44 51 120 51q75 0 116.5 -45t41.5 -120v-292h-124v266q0 36 -18.5 57.5t-54.5 21.5q-29 0 -51.5 -16.5t-29.5 -45.5v-283h-124z" glyph-name="h" horiz-adv-x="505" unicode="h"/><glyph d="M178 447v-447h-124v447h124zM189 576q0 -31 -21.5 -51t-51.5 -20q-31 0 -52.5 20t-21.5 51q0 30 22 50.5t52 20.5t51.5 -20.5t21.5 -50.5z" glyph-name="i" horiz-adv-x="232" unicode="i"/><glyph d="M178 447v-465q0 -75 -40 -116t-116 -41q-33 0 -48 5v99q21 -3 27 -3q53 0 53 57v464h124zM189 576q0 -31 -21.5 -51t-51.5 -20q-31 0 -52.5 20t-21.5 51q0 30 22 50.5t52 20.5t51.5 -20.5t21.5 -50.5z" glyph-name="j" horiz-adv-x="230" unicode="j"/><glyph d="M345 0l-131 180l-36 -39v-141h-124v650h124v-369l153 166h154l-181 -190l188 -257h-147z" glyph-name="k" horiz-adv-x="499" unicode="k"/><glyph d="M178 650v-650h-124v650h124z" glyph-name="l" horiz-adv-x="232" unicode="l"/><glyph d="M411 400q52 57 135 57q69 0 108 -44.5t39 -120.5v-292h-124v266q0 37 -16.5 58.5t-47.5 21.5q-25 0 -44 -15t-25 -43v-288h-125v266q0 80 -63 80q-25 0 -44.5 -15.5t-25.5 -42.5v-288h-124v447h124v-37q37 47 113 47q77 0 120 -57z" glyph-name="m" horiz-adv-x="742" unicode="m"/><glyph d="M54 0v447h124v-41q44 51 120 51q75 0 116.5 -45t41.5 -120v-292h-124v266q0 36 -18.5 57.5t-54.5 21.5q-29 0 -51.5 -16.5t-29.5 -45.5v-283h-124z" glyph-name="n" horiz-adv-x="505" unicode="n"/><glyph d="M464 223q0 -103 -61 -168t-158 -65t-158 65t-61 168q0 104 61 169t158 65t158 -65t61 -169zM341 223q0 58 -25.5 93.5t-70.5 35.5t-70.5 -35.5t-25.5 -93.5q0 -57 25.5 -92.5t70.5 -35.5t70.5 35.5t25.5 92.5z" glyph-name="o" horiz-adv-x="489" unicode="o"/><glyph d="M178 37v-202h-124v612h124v-37q16 19 47 33t65 14q94 0 149 -67.5t55 -166.5t-55 -166t-149 -67q-34 0 -65 14t-47 33zM178 297v-147q11 -23 34 -37.5t50 -14.5q49 0 78 35t29 90t-29 90.5t-78 35.5q-27 0 -49.5 -14.5t-34.5 -37.5z" glyph-name="p" horiz-adv-x="519" unicode="p"/><glyph d="M341 -165v202q-16 -19 -47 -33t-65 -14q-94 0 -149 67t-55 166t55 166.5t149 67.5q34 0 65 -14t47 -33v37h124v-612h-124zM341 150v147q-12 23 -34.5 37.5t-49.5 14.5q-49 0 -78 -35.5t-29 -90.5t29 -90t78 -35q27 0 50 14.5t34 37.5z" glyph-name="q" horiz-adv-x="519" unicode="q"/><glyph d="M325 449v-124q-25 15 -62 15q-32 0 -55 -16.5t-30 -46.5v-277h-124v447h124v-44q32 54 100 54q33 0 47 -8z" glyph-name="r" horiz-adv-x="351" unicode="r"/><glyph d="M25 133h123q15 -49 75 -49q63 0 63 44q0 15 -10.5 23.5t-34.5 14.5l-90 20q-116 27 -116 126q0 64 51 104.5t127 40.5q83 0 130.5 -36.5t59.5 -101.5h-118q-14 44 -70 44q-24 0 -41.5 -11t-17.5 -31q0 -25 40 -35l92 -21q119 -29 119 -130q0 -67 -51.5 -106t-131.5 -39 q-83 0 -136 37.5t-63 105.5z" glyph-name="s" horiz-adv-x="437" unicode="s"/><glyph d="M81 135v212h-68v100h68v121h123v-121h98v-100h-98v-196q0 -51 51 -51q31 0 54 15v-110q-26 -14 -80 -14q-70 0 -109 36t-39 108z" glyph-name="t" horiz-adv-x="345" unicode="t"/><glyph d="M450 447v-447h-124v41q-46 -51 -120 -51t-115.5 45t-41.5 120v292h124v-267q0 -37 18 -58t54 -21q29 0 51 16.5t29 45.5v284h125z" glyph-name="u" horiz-adv-x="503" unicode="u"/><glyph d="M302 0h-120l-169 447h130l103 -297l101 297h125z" glyph-name="v" horiz-adv-x="485" unicode="v"/><glyph d="M385 447l74 -285l80 285h120l-136 -447h-114l-73 274l-73 -274h-114l-136 447h124l80 -285l73 285h95z" glyph-name="w" horiz-adv-x="672" unicode="w"/><glyph d="M459 447l-153 -216l163 -231h-137l-96 140l-97 -140h-130l161 228l-152 219h137l86 -127l88 127h130z" glyph-name="x" horiz-adv-x="477" unicode="x"/><glyph d="M241 -165h-122l65 163l-171 449h131l103 -297l102 297h125z" glyph-name="y" horiz-adv-x="487" unicode="y"/><glyph d="M412 100v-100h-374v80l215 267h-207v100h362v-80l-211 -267h215z" glyph-name="z" horiz-adv-x="453" unicode="z"/><glyph d="M213 200v-148q0 -29 29 -29h91v-107h-108q-57 0 -93 36t-36 94v154q0 29 -29 29h-47v108h47q29 0 29 29v154q0 58 36 94t93 36h108v-107h-91q-29 0 -29 -29v-148q0 -54 -47 -83q47 -29 47 -83z" glyph-name="braceleft" horiz-adv-x="353" unicode="{"/><glyph d="M59 -84v734h110v-734h-110z" glyph-name="bar" horiz-adv-x="228" unicode="|"/><glyph d="M140 52v148q0 54 47 83q-47 29 -47 83v148q0 29 -29 29h-91v107h108q57 0 93 -36t36 -94v-154q0 -29 29 -29h47v-108h-47q-29 0 -29 -29v-154q0 -58 -36 -94t-93 -36h-108v107h91q29 0 29 29z" glyph-name="braceright" horiz-adv-x="353" unicode="}"/><glyph d="M304 347h88q0 -72 -28 -112t-78 -40q-27 0 -50.5 14.5t-42 29.5t-33.5 15q-36 0 -36 -55h-88q0 72 28 112t78 40q34 0 72 -29.5t54 -29.5q36 0 36 55z" glyph-name="asciitilde" horiz-adv-x="428" unicode="~"/><glyph glyph-name="uni00A0" horiz-adv-x="212"/><glyph d="M30 448q0 32 22.5 54.5t55.5 22.5t56 -22.5t23 -54.5q0 -33 -23 -55.5t-56 -22.5t-55.5 22.5t-22.5 55.5zM33 -96l30 416h91l30 -416h-151z" glyph-name="exclamdown" horiz-adv-x="224" unicode="¡"/><glyph d="M26 233q0 89 45 150.5t120 78.5v90h106v-91q60 -14 96 -56.5t43 -104.5h-121q-4 28 -24 44.5t-50 16.5q-42 0 -67 -35t-25 -93q0 -57 25 -92t67 -35q30 0 50 16t24 44h121q-7 -62 -43 -104.5t-96 -55.5v-93h-106v92q-75 16 -120 77.5t-45 150.5z" glyph-name="cent" horiz-adv-x="459" unicode="¢"/><glyph d="M218 424v-73h128v-97h-128v-60q0 -63 -21 -91h276v-103h-446v103h52q20 35 20 91v60h-72v97h72v71q0 87 52.5 144.5t139.5 57.5q79 0 127.5 -45.5t55.5 -120.5h-115q-6 61 -67 61q-36 0 -55 -26t-19 -69z" glyph-name="sterling" horiz-adv-x="497" unicode="£"/><glyph d="M65 256v84h105l-151 274h137l127 -242l127 242h132l-153 -274h106v-84h-152v-56h152v-84h-152v-116h-126v116h-152v84h152v56h-152z" glyph-name="yen" horiz-adv-x="561" unicode="¥"/><glyph d="M382 104q21 -29 21 -66q0 -63 -47.5 -100.5t-124.5 -37.5q-83 0 -131 39t-56 108h113q9 -55 71 -55q24 0 40.5 11t16.5 32q0 17 -11 28.5t-36 26.5l-110 67q-52 31 -80 65t-28 82q0 78 69 116q-21 27 -21 66q0 63 47.5 100.5t123.5 37.5q84 0 132 -39t56 -108h-113 q-9 55 -71 55q-24 0 -41 -11t-17 -32q0 -17 11 -28t36 -27l111 -67q52 -31 80 -65t28 -82q0 -78 -69 -116zM183 247l122 -78q34 9 34 45q0 29 -52 63l-121 78q-34 -8 -34 -45q0 -30 51 -63z" glyph-name="section" horiz-adv-x="471" unicode="§"/><glyph d="M101 570q0 28 19.5 47.5t47.5 19.5q27 0 46.5 -19.5t19.5 -47.5q0 -27 -19.5 -46.5t-46.5 -19.5q-28 0 -47.5 19.5t-19.5 46.5zM265 570q0 28 19.5 47.5t46.5 19.5t47 -19.5t20 -47.5q0 -27 -20 -46.5t-47 -19.5t-46.5 19.5t-19.5 46.5z" glyph-name="dieresis" horiz-adv-x="500" unicode="¨"/><glyph d="M669 307q0 -136 -92.5 -226.5t-224.5 -90.5t-224.5 90.5t-92.5 226.5t92.5 226.5t224.5 90.5t224.5 -90.5t92.5 -226.5zM622 307q0 116 -79 193.5t-191 77.5t-191 -77.5t-79 -193.5t79 -193.5t191 -77.5t191 77.5t79 193.5zM168 309q0 88 52.5 143.5t134.5 55.5 q71 0 114 -37.5t54 -99.5h-105q-14 43 -63 43q-39 0 -61 -29.5t-22 -75.5t22 -76t61 -30q49 0 63 44h105q-11 -62 -54 -99.5t-114 -37.5q-82 0 -134.5 55.5t-52.5 143.5z" glyph-name="copyright" horiz-adv-x="704" unicode="©"/><glyph d="M288 317h-95v15q-23 -21 -73 -21q-47 0 -79 26t-32 71q0 43 33 70t83 27q40 0 68 -17v20q0 16 -10.5 27t-30.5 11q-32 0 -38 -24h-91q6 45 42 74t91 29q62 0 97 -32t35 -89v-187zM193 401v18q-12 22 -46 22q-18 0 -30.5 -8t-12.5 -23q0 -30 43 -30q35 0 46 21z" glyph-name="ordfeminine" horiz-adv-x="308" unicode="ª"/><glyph d="M223 61h-106l-92 161l92 161h106l-92 -161zM395 61h-106l-92 161l92 161h106l-92 -161z" glyph-name="guillemotleft" horiz-adv-x="420" unicode="«"/><glyph d="M384 441q0 -78 -53 -130.5t-128 -52.5t-128 52.5t-53 130.5t53 130.5t128 52.5t128 -52.5t53 -130.5zM351 441q0 66 -43 109t-105 43t-105 -43t-43 -109t43 -109t105 -43t105 43t43 109zM199 407h-17v-61h-54v192h90q33 0 52 -18t19 -49q0 -45 -37 -58l44 -67h-60z M237 471q0 22 -25 22h-30v-43h30q25 0 25 21z" glyph-name="registered" horiz-adv-x="407" unicode="®"/><glyph d="M131 516v91h237v-91h-237z" glyph-name="macron" horiz-adv-x="500" unicode="¯"/><glyph d="M119 487q0 -25 17.5 -43t42.5 -18q24 0 41.5 18t17.5 43t-17.5 43.5t-41.5 18.5q-25 0 -42.5 -18t-17.5 -44zM314 487q0 -56 -39.5 -96t-95.5 -40t-95.5 40t-39.5 96q0 57 39.5 97t95.5 40t95.5 -40t39.5 -97z" glyph-name="degree" horiz-adv-x="357" unicode="°"/><glyph d="M240 548h90v-130h164v-90h-164v-130h-90v130h-165v90h165v130zM75 62v91h419v-91h-419z" glyph-name="plusminus" horiz-adv-x="569" unicode="±"/><glyph d="M181 509q0 13 -8.5 21t-22.5 8t-23.5 -10t-9.5 -24h-96q5 50 39.5 82.5t88.5 32.5q56 0 89.5 -29.5t33.5 -77.5q0 -21 -10 -41t-21 -32.5t-33 -33.5l-58 -55h122v-77h-248v60l118 116q39 37 39 60z" glyph-name="twosuperior" horiz-adv-x="298" unicode="²"/><glyph d="M119 412v66h23q41 0 41 33q0 15 -9.5 24t-25.5 9t-26 -11t-12 -27h-89q6 48 38.5 80.5t85.5 32.5q57 0 89.5 -29t32.5 -77q0 -21 -10.5 -40.5t-25.5 -28.5q40 -20 40 -68q0 -49 -33.5 -79t-91.5 -30q-57 0 -91.5 31.5t-37.5 84.5h93q1 -18 11 -29t28 -11q17 0 27 10 t10 26q0 33 -40 33h-27z" glyph-name="threesuperior" horiz-adv-x="295" unicode="³"/><glyph d="M261 508h-112l79 142h123z" glyph-name="acute" horiz-adv-x="500" unicode="´"/><glyph d="M388 -90v704h91v-704h-91zM233 -90v349q-88 0 -154 45.5t-66 132.5t66 132t154 45h91v-704h-91z" glyph-name="paragraph" horiz-adv-x="538" unicode="¶"/><glyph d="M29 263q0 34 22.5 56.5t55.5 22.5t55.5 -22.5t22.5 -56.5t-22.5 -57t-55.5 -23t-55.5 23t-22.5 57z" glyph-name="periodcentered" horiz-adv-x="214" unicode="·"/><glyph d="M265 -186h-110l70 139h114z" glyph-name="cedilla" horiz-adv-x="500" unicode="¸"/><glyph d="M196 614v-341h-91v237l-87 -43v92l115 55h63z" glyph-name="onesuperior" horiz-adv-x="237" unicode="¹"/><glyph d="M315 468q0 -70 -42.5 -114t-110.5 -44t-111 44t-43 114q0 69 43 113t111 44t110.5 -44t42.5 -113zM214 468q0 32 -14 52.5t-38 20.5t-38 -20.5t-14 -52.5q0 -33 14 -53t38 -20t38 20t14 53z" glyph-name="ordmasculine" horiz-adv-x="324" unicode="º"/><glyph d="M303 61h-106l92 161l-92 161h106l92 -161zM131 61h-106l92 161l-92 161h106l92 -161z" glyph-name="guillemotright" horiz-adv-x="420" unicode="»"/><glyph d="M599 614l-431 -614h-90l431 614h90zM209 614v-341h-90v237l-88 -43v92l115 55h63zM578 341l-96 -204h53v55h80v-55h47v-76h-47v-61h-80v61h-152v69l106 211h89z" glyph-name="onequarter" horiz-adv-x="702" unicode="¼"/><glyph d="M599 614l-431 -614h-90l431 614h90zM209 614v-341h-90v237l-88 -43v92l115 55h63zM574 236q0 14 -8 22t-22 8t-23.5 -10t-10.5 -24h-95q5 50 39.5 82t87.5 32q57 0 90 -29t33 -77q0 -21 -10.5 -42t-20 -31.5t-32.5 -34.5l-58 -54h122v-78h-249v61l119 115q38 40 38 60z" glyph-name="onehalf" horiz-adv-x="716" unicode="½"/><glyph d="M632 614l-430 -614h-90l431 614h89zM140 412v66h23q41 0 41 33q0 15 -9 24t-25 9t-26.5 -11t-12.5 -27h-89q6 49 38.5 81t86.5 32q56 0 89 -29t33 -77q0 -21 -10.5 -40.5t-26.5 -28.5q40 -20 40 -68q0 -49 -33 -79t-91 -30t-92.5 31.5t-37.5 84.5h93q1 -18 11.5 -29 t27.5 -11t27.5 10t10.5 26q0 33 -41 33h-27zM612 341l-97 -204h54v55h79v-55h48v-76h-48v-61h-79v61h-152v69l105 211h90z" glyph-name="threequarters" horiz-adv-x="736" unicode="¾"/><glyph d="M301 448q0 -33 -23 -55.5t-56 -22.5t-56 22.5t-23 55.5q0 32 23 54.5t56 22.5t56 -22.5t23 -54.5zM20 75q0 16 3 30.5t10 29t12 24.5t17.5 25t18 21.5t21 23t19.5 20.5q36 38 36 71h123q-2 -36 -13.5 -60t-42.5 -60q-5 -6 -25 -27.5t-27 -30.5t-15 -26t-8 -34 q0 -33 20.5 -53.5t56.5 -20.5q37 0 58 24t23 61h132q-9 -88 -67 -143.5t-149 -55.5q-94 0 -148.5 49t-54.5 132z" glyph-name="questiondown" horiz-adv-x="456" unicode="¿"/><glyph d="M250 614h127l235 -614h-130l-55 148h-230l-54 -148h-128zM379 669h-122l-93 122h135zM312 460l-75 -204h150z" glyph-name="Agrave" horiz-adv-x="627" unicode="À"/><glyph d="M250 614h127l235 -614h-130l-55 148h-230l-54 -148h-128zM368 669h-122l80 122h135zM312 460l-75 -204h150z" glyph-name="Aacute" horiz-adv-x="627" unicode="Á"/><glyph d="M250 614h127l235 -614h-130l-55 148h-230l-54 -148h-128zM365 796l100 -127h-105l-47 54l-47 -54h-105l100 127h104zM312 460l-75 -204h150z" glyph-name="Acircumflex" horiz-adv-x="627" unicode="Â"/><glyph d="M250 614h127l235 -614h-130l-55 148h-230l-54 -148h-128zM391 802h71q0 -63 -21 -101t-64 -38q-26 0 -61.5 21t-51.5 21q-28 0 -29 -39h-71q0 63 21 101t64 38q26 0 61.5 -21t51.5 -21q28 0 29 39zM312 460l-75 -204h150z" glyph-name="Atilde" horiz-adv-x="627" unicode="Ã"/><glyph d="M250 614h127l235 -614h-130l-55 148h-230l-54 -148h-128zM312 460l-75 -204h150zM329 730q0 29 19.5 48.5t47.5 19.5t48 -19.5t20 -48.5q0 -27 -20 -46.5t-48 -19.5t-47.5 19.5t-19.5 46.5zM164 730q0 29 19 48.5t48 19.5q28 0 47.5 -19.5t19.5 -48.5q0 -27 -19.5 -46.5 t-47.5 -19.5t-47.5 19.5t-19.5 46.5z" glyph-name="Adieresis" horiz-adv-x="627" unicode="Ä"/><glyph d="M250 614h127l235 -614h-130l-55 148h-230l-54 -148h-128zM412 743q0 -41 -28.5 -69t-70.5 -28t-70.5 28t-28.5 69t28.5 69t70.5 28t70.5 -28t28.5 -69zM312 460l-75 -204h150zM353 743q0 17 -11.5 28.5t-28.5 11.5q-16 0 -27.5 -11.5t-11.5 -28.5t11 -28t28 -11 t28.5 11.5t11.5 27.5z" glyph-name="Aring" horiz-adv-x="627" unicode="Å"/><glyph d="M365 614h474v-112h-272v-134h245v-109h-245v-146h272v-113h-398v148h-208l-84 -148h-134zM441 512l-146 -256h146v256z" glyph-name="AE" horiz-adv-x="879" unicode="Æ"/><glyph d="M29 307q0 140 81 228.5t205 88.5q106 0 172.5 -56.5t84.5 -151.5h-127q-35 94 -130 94q-72 0 -114 -56.5t-42 -146.5q0 -89 42 -146t114 -57q95 0 130 95h127q-18 -96 -84.5 -152.5t-172.5 -56.5q-124 0 -205 88.5t-81 228.5zM305 -186h-110l70 139h114z" glyph-name="Ccedilla" horiz-adv-x="599" unicode="Ç"/><glyph d="M338 669h-122l-93 122h135zM59 614h417v-112h-291v-134h264v-109h-264v-146h291v-113h-417v614z" glyph-name="Egrave" horiz-adv-x="516" unicode="È"/><glyph d="M326 669h-122l80 122h135zM59 614h417v-112h-291v-134h264v-109h-264v-146h291v-113h-417v614z" glyph-name="Eacute" horiz-adv-x="516" unicode="É"/><glyph d="M59 614h417v-112h-291v-134h264v-109h-264v-146h291v-113h-417v614zM323 796l100 -127h-105l-47 54l-47 -54h-105l100 127h104z" glyph-name="Ecircumflex" horiz-adv-x="516" unicode="Ê"/><glyph d="M122 730q0 29 19 48.5t48 19.5q28 0 47.5 -19.5t19.5 -48.5q0 -27 -19.5 -46.5t-47.5 -19.5t-47.5 19.5t-19.5 46.5zM287 730q0 29 19.5 48.5t47.5 19.5t48 -19.5t20 -48.5q0 -27 -20 -46.5t-48 -19.5t-47.5 19.5t-19.5 46.5zM59 614h417v-112h-291v-134h264v-109h-264 v-146h291v-113h-417v614z" glyph-name="Edieresis" horiz-adv-x="516" unicode="Ë"/><glyph d="M187 614v-614h-128v614h128zM189 669h-122l-93 122h135z" glyph-name="Igrave" horiz-adv-x="245" unicode="Ì"/><glyph d="M187 614v-614h-128v614h128zM178 669h-122l80 122h135z" glyph-name="Iacute" horiz-adv-x="245" unicode="Í"/><glyph d="M187 614v-614h-128v614h128zM175 796l100 -127h-105l-47 54l-47 -54h-105l100 127h104z" glyph-name="Icircumflex" horiz-adv-x="245" unicode="Î"/><glyph d="M187 614v-614h-128v614h128zM-27 730q0 29 19 48.5t48 19.5q28 0 47.5 -19.5t19.5 -48.5q0 -27 -19.5 -46.5t-47.5 -19.5t-47.5 19.5t-19.5 46.5zM138 730q0 29 19.5 48.5t47.5 19.5t48 -19.5t20 -48.5q0 -27 -20 -46.5t-48 -19.5t-47.5 19.5t-19.5 46.5z" glyph-name="Idieresis" horiz-adv-x="245" unicode="Ï"/><glyph d="M25 264v103h51v247h217q139 0 221 -83t82 -224t-82 -224t-221 -83h-217v264h-51zM203 113h85q87 0 134 52t47 142q0 91 -47 143t-134 52h-85v-135h103v-103h-103v-151z" glyph-name="Eth" horiz-adv-x="626" unicode="Ð"/><glyph d="M394 802h71q0 -63 -21 -101t-64 -38q-26 0 -61.5 21t-51.5 21q-27 0 -29 -39h-71q0 63 21 101t64 38q26 0 61.5 -21t51.5 -21q27 0 29 39zM573 614v-614h-101l-290 409v-409h-123v614h120l271 -388v388h123z" glyph-name="Ntilde" horiz-adv-x="632" unicode="Ñ"/><glyph d="M386 669h-122l-93 122h135zM610 307q0 -138 -81.5 -227.5t-209.5 -89.5t-209 89.5t-81 227.5q0 139 81 228t209 89t209.5 -89.5t81.5 -227.5zM481 307q0 91 -44.5 147t-117.5 56q-72 0 -116 -56t-44 -147t44 -147t116 -56q73 0 117.5 56t44.5 147z" glyph-name="Ograve" horiz-adv-x="640" unicode="Ò"/><glyph d="M374 669h-122l80 122h135zM610 307q0 -138 -81.5 -227.5t-209.5 -89.5t-209 89.5t-81 227.5q0 139 81 228t209 89t209.5 -89.5t81.5 -227.5zM481 307q0 91 -44.5 147t-117.5 56q-72 0 -116 -56t-44 -147t44 -147t116 -56q73 0 117.5 56t44.5 147z" glyph-name="Oacute" horiz-adv-x="640" unicode="Ó"/><glyph d="M610 307q0 -138 -81.5 -227.5t-209.5 -89.5t-209 89.5t-81 227.5q0 139 81 228t209 89t209.5 -89.5t81.5 -227.5zM481 307q0 91 -44.5 147t-117.5 56q-72 0 -116 -56t-44 -147t44 -147t116 -56q73 0 117.5 56t44.5 147zM371 796l100 -127h-105l-47 54l-47 -54h-105 l100 127h104z" glyph-name="Ocircumflex" horiz-adv-x="640" unicode="Ô"/><glyph d="M397 802h71q0 -63 -21 -101t-64 -38q-26 0 -61.5 21t-51.5 21q-28 0 -29 -39h-71q0 63 21 101t64 38q26 0 61.5 -21t51.5 -21q28 0 29 39zM610 307q0 -138 -81.5 -227.5t-209.5 -89.5t-209 89.5t-81 227.5q0 139 81 228t209 89t209.5 -89.5t81.5 -227.5zM481 307 q0 91 -44.5 147t-117.5 56q-72 0 -116 -56t-44 -147t44 -147t116 -56q73 0 117.5 56t44.5 147z" glyph-name="Otilde" horiz-adv-x="640" unicode="Õ"/><glyph d="M170 730q0 29 19 48.5t48 19.5q28 0 47.5 -19.5t19.5 -48.5q0 -27 -19.5 -46.5t-47.5 -19.5t-47.5 19.5t-19.5 46.5zM335 730q0 29 19.5 48.5t47.5 19.5t48 -19.5t20 -48.5q0 -27 -20 -46.5t-48 -19.5t-47.5 19.5t-19.5 46.5zM610 307q0 -138 -81.5 -227.5t-209.5 -89.5 t-209 89.5t-81 227.5q0 139 81 228t209 89t209.5 -89.5t81.5 -227.5zM481 307q0 91 -44.5 147t-117.5 56q-72 0 -116 -56t-44 -147t44 -147t116 -56q73 0 117.5 56t44.5 147z" glyph-name="Odieresis" horiz-adv-x="640" unicode="Ö"/><glyph d="M182 298l-122 120l66 66l121 -121l121 121l67 -66l-122 -120l122 -121l-67 -67l-121 121l-121 -121l-66 67z" glyph-name="multiply" horiz-adv-x="495" unicode="×"/><glyph d="M50 31l52 63q-68 87 -68 213q0 139 81 228t209 89q97 0 171 -55l48 58l58 -44l-54 -65q68 -87 68 -211q0 -138 -81.5 -227.5t-209.5 -89.5q-97 0 -169 53l-47 -56zM163 307q0 -67 21 -113l236 284q-40 32 -96 32q-72 0 -116.5 -56.5t-44.5 -146.5zM486 307q0 65 -21 111 l-235 -284q39 -30 94 -30q73 0 117.5 56.5t44.5 146.5z" glyph-name="Oslash" horiz-adv-x="649" unicode="Ø"/><glyph d="M371 669h-122l-93 122h135zM305 -10q-117 0 -186 66.5t-69 190.5v367h128v-354q0 -155 127 -155t127 155v354h128v-367q0 -124 -68.5 -190.5t-186.5 -66.5z" glyph-name="Ugrave" horiz-adv-x="610" unicode="Ù"/><glyph d="M360 669h-122l80 122h135zM305 -10q-117 0 -186 66.5t-69 190.5v367h128v-354q0 -155 127 -155t127 155v354h128v-367q0 -124 -68.5 -190.5t-186.5 -66.5z" glyph-name="Uacute" horiz-adv-x="610" unicode="Ú"/><glyph d="M305 -10q-117 0 -186 66.5t-69 190.5v367h128v-354q0 -155 127 -155t127 155v354h128v-367q0 -124 -68.5 -190.5t-186.5 -66.5zM357 796l100 -127h-105l-47 54l-47 -54h-105l100 127h104z" glyph-name="Ucircumflex" horiz-adv-x="610" unicode="Û"/><glyph d="M156 730q0 29 19 48.5t48 19.5q28 0 47.5 -19.5t19.5 -48.5q0 -27 -19.5 -46.5t-47.5 -19.5t-47.5 19.5t-19.5 46.5zM321 730q0 29 19.5 48.5t47.5 19.5t48 -19.5t20 -48.5q0 -27 -20 -46.5t-48 -19.5t-47.5 19.5t-19.5 46.5zM305 -10q-117 0 -186 66.5t-69 190.5v367 h128v-354q0 -155 127 -155t127 155v354h128v-367q0 -124 -68.5 -190.5t-186.5 -66.5z" glyph-name="Udieresis" horiz-adv-x="610" unicode="Ü"/><glyph d="M299 354l148 260h135l-223 -381v-233h-127v233l-221 381h139zM351 669h-122l80 122h135z" glyph-name="Yacute" horiz-adv-x="593" unicode="Ý"/><glyph d="M309 114h-123v-114h-127v614h127v-99h123q100 0 158 -52t58 -149q0 -96 -58.5 -148t-157.5 -52zM399 314q0 43 -25 67.5t-73 24.5h-115v-183h115q48 0 73 25t25 66z" glyph-name="Thorn" horiz-adv-x="552" unicode="Þ"/><glyph d="M389 361q50 -17 82 -63t32 -109q0 -91 -55 -142.5t-143 -51.5q-47 0 -79 11v104q23 -9 60 -9q47 0 73 26t26 73q0 48 -31.5 74.5t-87.5 26.5h-36v101h31q38 0 59 19.5t21 57.5q0 33 -21.5 54t-57.5 21q-42 0 -64 -28.5t-22 -73.5v-452h-122v447q0 97 56.5 154.5 t150.5 57.5t145.5 -47t51.5 -122q0 -47 -19.5 -81.5t-49.5 -47.5z" glyph-name="germandbls" horiz-adv-x="529" unicode="ß"/><glyph d="M421 0h-119v24q-12 -12 -43 -22t-66 -10q-71 0 -118.5 39t-47.5 106q0 63 49.5 103t123.5 40q28 0 58 -8t44 -18v33q0 30 -18.5 49.5t-54.5 19.5q-50 0 -66 -42h-118q10 62 61.5 102.5t126.5 40.5q89 0 138.5 -45.5t49.5 -126.5v-285zM302 122v32q-8 18 -30.5 28.5 t-50.5 10.5q-32 0 -55.5 -14t-23.5 -41t23 -41t56 -14q28 0 50.5 10.5t30.5 28.5zM304 508h-113l-89 142h123z" glyph-name="agrave" horiz-adv-x="468" unicode="à"/><glyph d="M421 0h-119v24q-12 -12 -43 -22t-66 -10q-71 0 -118.5 39t-47.5 106q0 63 49.5 103t123.5 40q28 0 58 -8t44 -18v33q0 30 -18.5 49.5t-54.5 19.5q-50 0 -66 -42h-118q10 62 61.5 102.5t126.5 40.5q89 0 138.5 -45.5t49.5 -126.5v-285zM302 122v32q-8 18 -30.5 28.5 t-50.5 10.5q-32 0 -55.5 -14t-23.5 -41t23 -41t56 -14q28 0 50.5 10.5t30.5 28.5zM293 508h-112l79 142h123z" glyph-name="aacute" horiz-adv-x="468" unicode="á"/><glyph d="M292 647l95 -145h-98l-49 69l-49 -69h-98l95 145h104zM421 0h-119v24q-12 -12 -43 -22t-66 -10q-71 0 -118.5 39t-47.5 106q0 63 49.5 103t123.5 40q28 0 58 -8t44 -18v33q0 30 -18.5 49.5t-54.5 19.5q-50 0 -66 -42h-118q10 62 61.5 102.5t126.5 40.5q89 0 138.5 -45.5 t49.5 -126.5v-285zM302 122v32q-8 18 -30.5 28.5t-50.5 10.5q-32 0 -55.5 -14t-23.5 -41t23 -41t56 -14q28 0 50.5 10.5t30.5 28.5z" glyph-name="acircumflex" horiz-adv-x="468" unicode="â"/><glyph d="M421 0h-119v24q-12 -12 -43 -22t-66 -10q-71 0 -118.5 39t-47.5 106q0 63 49.5 103t123.5 40q28 0 58 -8t44 -18v33q0 30 -18.5 49.5t-54.5 19.5q-50 0 -66 -42h-118q10 62 61.5 102.5t126.5 40.5q89 0 138.5 -45.5t49.5 -126.5v-285zM302 122v32q-8 18 -30.5 28.5 t-50.5 10.5q-32 0 -55.5 -14t-23.5 -41t23 -41t56 -14q28 0 50.5 10.5t30.5 28.5zM313 643h71q0 -63 -21.5 -101t-64.5 -38q-24 0 -55 23t-44 23q-28 0 -30 -42h-71q0 63 21.5 101t64.5 38q24 0 55 -23t44 -23q28 0 30 42z" glyph-name="atilde" horiz-adv-x="468" unicode="ã"/><glyph d="M94 570q0 28 19.5 47.5t47.5 19.5q27 0 46.5 -19.5t19.5 -47.5q0 -27 -19.5 -46.5t-46.5 -19.5q-28 0 -47.5 19.5t-19.5 46.5zM258 570q0 28 19.5 47.5t46.5 19.5t47 -19.5t20 -47.5q0 -27 -20 -46.5t-47 -19.5t-46.5 19.5t-19.5 46.5zM421 0h-119v24q-12 -12 -43 -22 t-66 -10q-71 0 -118.5 39t-47.5 106q0 63 49.5 103t123.5 40q28 0 58 -8t44 -18v33q0 30 -18.5 49.5t-54.5 19.5q-50 0 -66 -42h-118q10 62 61.5 102.5t126.5 40.5q89 0 138.5 -45.5t49.5 -126.5v-285zM302 122v32q-8 18 -30.5 28.5t-50.5 10.5q-32 0 -55.5 -14t-23.5 -41 t23 -41t56 -14q28 0 50.5 10.5t30.5 28.5z" glyph-name="adieresis" horiz-adv-x="468" unicode="ä"/><glyph d="M421 0h-119v24q-12 -12 -43 -22t-66 -10q-71 0 -118.5 39t-47.5 106q0 63 49.5 103t123.5 40q28 0 58 -8t44 -18v33q0 30 -18.5 49.5t-54.5 19.5q-50 0 -66 -42h-118q10 62 61.5 102.5t126.5 40.5q89 0 138.5 -45.5t49.5 -126.5v-285zM302 122v32q-8 18 -30.5 28.5 t-50.5 10.5q-32 0 -55.5 -14t-23.5 -41t23 -41t56 -14q28 0 50.5 10.5t30.5 28.5zM338 584q0 -41 -28.5 -69t-70.5 -28t-70.5 28t-28.5 69t28.5 69t70.5 28t70.5 -28t28.5 -69zM279 584q0 16 -11.5 28t-28.5 12q-16 0 -27.5 -11.5t-11.5 -28.5q0 -16 11 -27.5t28 -11.5 t28.5 11.5t11.5 27.5z" glyph-name="aring" horiz-adv-x="468" unicode="å"/><glyph d="M213 85q64 0 86 51v58h-80q-32 0 -54.5 -13.5t-22.5 -40.5t21 -41t50 -14zM588 144h115q-12 -71 -64 -112.5t-134 -41.5q-95 0 -155 62q-61 -61 -157 -61q-70 0 -118 38.5t-48 101.5q0 66 51.5 104t129.5 38h91v15q0 30 -18.5 49.5t-54.5 19.5q-54 0 -68 -43h-113 q10 62 60.5 102.5t123.5 40.5q94 0 140 -59q59 59 135 59q95 0 148.5 -61t53.5 -161v-40h-297q3 -50 29 -77.5t68 -27.5q67 0 82 54zM504 356q-75 0 -92 -84h173q-2 37 -23 60.5t-58 23.5z" glyph-name="ae" horiz-adv-x="731" unicode="æ"/><glyph d="M26 223q0 104 60 169t155 65q82 0 134 -44t62 -117h-122q-5 26 -24.5 40.5t-49.5 14.5q-42 0 -67 -35t-25 -93q0 -57 25 -92t67 -35q30 0 49.5 14.5t24.5 40.5h122q-10 -73 -61.5 -117t-134.5 -44q-95 0 -155 65t-60 168zM231 -186h-110l70 139h114z" glyph-name="ccedilla" horiz-adv-x="459" unicode="ç"/><glyph d="M326 146h115q-12 -73 -63.5 -114.5t-134.5 -41.5q-97 0 -157 64.5t-60 168.5q0 101 60.5 167.5t154.5 66.5q96 0 149.5 -60.5t53.5 -161.5v-38h-298q3 -50 29 -78.5t68 -28.5q68 0 83 56zM242 356q-76 0 -93 -84h173q-1 37 -22 60.5t-58 23.5zM307 508h-113l-89 142h123z" glyph-name="egrave" horiz-adv-x="469" unicode="è"/><glyph d="M297 508h-112l79 142h123zM326 146h115q-12 -73 -63.5 -114.5t-134.5 -41.5q-97 0 -157 64.5t-60 168.5q0 101 60.5 167.5t154.5 66.5q96 0 149.5 -60.5t53.5 -161.5v-38h-298q3 -50 29 -78.5t68 -28.5q68 0 83 56zM242 356q-76 0 -93 -84h173q-1 37 -22 60.5t-58 23.5z" glyph-name="eacute" horiz-adv-x="469" unicode="é"/><glyph d="M297 647l95 -145h-98l-49 69l-49 -69h-98l95 145h104zM326 146h115q-12 -73 -63.5 -114.5t-134.5 -41.5q-97 0 -157 64.5t-60 168.5q0 101 60.5 167.5t154.5 66.5q96 0 149.5 -60.5t53.5 -161.5v-38h-298q3 -50 29 -78.5t68 -28.5q68 0 83 56zM242 356q-76 0 -93 -84h173 q-1 37 -22 60.5t-58 23.5z" glyph-name="ecircumflex" horiz-adv-x="469" unicode="ê"/><glyph d="M98 570q0 28 19.5 47.5t47.5 19.5q27 0 46.5 -19.5t19.5 -47.5q0 -27 -19.5 -46.5t-46.5 -19.5q-28 0 -47.5 19.5t-19.5 46.5zM262 570q0 28 19.5 47.5t46.5 19.5t47 -19.5t20 -47.5q0 -27 -20 -46.5t-47 -19.5t-46.5 19.5t-19.5 46.5zM326 146h115q-12 -73 -63.5 -114.5 t-134.5 -41.5q-97 0 -157 64.5t-60 168.5q0 101 60.5 167.5t154.5 66.5q96 0 149.5 -60.5t53.5 -161.5v-38h-298q3 -50 29 -78.5t68 -28.5q68 0 83 56zM242 356q-76 0 -93 -84h173q-1 37 -22 60.5t-58 23.5z" glyph-name="edieresis" horiz-adv-x="469" unicode="ë"/><glyph d="M178 447v-447h-124v447h124zM177 508h-113l-89 142h123z" glyph-name="igrave" horiz-adv-x="232" unicode="ì"/><glyph d="M167 508h-112l79 142h123zM178 447v-447h-124v447h124z" glyph-name="iacute" horiz-adv-x="232" unicode="í"/><glyph d="M168 647l77 -145h-95l-34 70l-35 -70h-95l78 145h104zM178 447v-447h-124v447h124z" glyph-name="icircumflex" horiz-adv-x="232" unicode="î"/><glyph d="M-27 570q0 28 19.5 47.5t47.5 19.5q27 0 46.5 -19.5t19.5 -47.5q0 -27 -19.5 -46.5t-46.5 -19.5q-28 0 -47.5 19.5t-19.5 46.5zM127 570q0 28 19 47.5t47 19.5q27 0 46.5 -19.5t19.5 -47.5q0 -27 -19.5 -46.5t-46.5 -19.5q-28 0 -47 19.5t-19 46.5zM178 447v-447h-124 v447h124z" glyph-name="idieresis" horiz-adv-x="232" unicode="ï"/><glyph d="M137 483l-24 62l63 20q-57 47 -106 81v4h157q26 -18 61 -49l85 28l24 -62l-56 -18q123 -140 123 -315q0 -111 -60.5 -177.5t-158.5 -66.5q-97 0 -158 64.5t-61 166.5t59 166t149 64q41 0 69 -24h4q-17 33 -73 87zM341 221q0 57 -25.5 92t-70.5 35t-70.5 -35t-25.5 -92 t25 -91.5t71 -34.5t71 34.5t25 91.5z" glyph-name="eth" horiz-adv-x="489" unicode="ð"/><glyph d="M54 0v447h124v-41q44 51 120 51q75 0 116.5 -45t41.5 -120v-292h-124v266q0 36 -18.5 57.5t-54.5 21.5q-29 0 -51.5 -16.5t-29.5 -45.5v-283h-124zM329 643h71q0 -63 -21.5 -101t-64.5 -38q-24 0 -55 23t-44 23q-28 0 -30 -42h-71q0 63 21.5 101t64.5 38q24 0 55 -23 t44 -23q28 0 30 42z" glyph-name="ntilde" horiz-adv-x="505" unicode="ñ"/><glyph d="M464 223q0 -103 -61 -168t-158 -65t-158 65t-61 168q0 104 61 169t158 65t158 -65t61 -169zM341 223q0 58 -25.5 93.5t-70.5 35.5t-70.5 -35.5t-25.5 -93.5q0 -57 25.5 -92.5t70.5 -35.5t70.5 35.5t25.5 92.5zM306 508h-113l-89 142h123z" glyph-name="ograve" horiz-adv-x="489" unicode="ò"/><glyph d="M295 508h-112l79 142h123zM464 223q0 -103 -61 -168t-158 -65t-158 65t-61 168q0 104 61 169t158 65t158 -65t61 -169zM341 223q0 58 -25.5 93.5t-70.5 35.5t-70.5 -35.5t-25.5 -93.5q0 -57 25.5 -92.5t70.5 -35.5t70.5 35.5t25.5 92.5z" glyph-name="oacute" horiz-adv-x="489" unicode="ó"/><glyph d="M297 647l95 -145h-98l-49 69l-49 -69h-98l95 145h104zM464 223q0 -103 -61 -168t-158 -65t-158 65t-61 168q0 104 61 169t158 65t158 -65t61 -169zM341 223q0 58 -25.5 93.5t-70.5 35.5t-70.5 -35.5t-25.5 -93.5q0 -57 25.5 -92.5t70.5 -35.5t70.5 35.5t25.5 92.5z" glyph-name="ocircumflex" horiz-adv-x="489" unicode="ô"/><glyph d="M464 223q0 -103 -61 -168t-158 -65t-158 65t-61 168q0 104 61 169t158 65t158 -65t61 -169zM341 223q0 58 -25.5 93.5t-70.5 35.5t-70.5 -35.5t-25.5 -93.5q0 -57 25.5 -92.5t70.5 -35.5t70.5 35.5t25.5 92.5zM317 643h71q0 -63 -21.5 -101t-64.5 -38q-24 0 -55 23 t-44 23q-28 0 -30 -42h-71q0 63 21.5 101t64.5 38q24 0 55 -23t44 -23q28 0 30 42z" glyph-name="otilde" horiz-adv-x="489" unicode="õ"/><glyph d="M97 570q0 28 19.5 47.5t47.5 19.5q27 0 46.5 -19.5t19.5 -47.5q0 -27 -19.5 -46.5t-46.5 -19.5q-28 0 -47.5 19.5t-19.5 46.5zM261 570q0 28 19.5 47.5t46.5 19.5t47 -19.5t20 -47.5q0 -27 -20 -46.5t-47 -19.5t-46.5 19.5t-19.5 46.5zM464 223q0 -103 -61 -168t-158 -65 t-158 65t-61 168q0 104 61 169t158 65t158 -65t61 -169zM341 223q0 58 -25.5 93.5t-70.5 35.5t-70.5 -35.5t-25.5 -93.5q0 -57 25.5 -92.5t70.5 -35.5t70.5 35.5t25.5 92.5z" glyph-name="odieresis" horiz-adv-x="489" unicode="ö"/><glyph d="M64 251v96h432v-96h-432zM210 472q0 29 20.5 50t49.5 21t50.5 -21t21.5 -50t-21.5 -49.5t-50.5 -20.5t-49.5 20.5t-20.5 49.5zM210 126q0 29 20.5 49.5t49.5 20.5t50.5 -20.5t21.5 -49.5t-21.5 -50t-50.5 -21t-49.5 21t-20.5 50z" glyph-name="divide" horiz-adv-x="560" unicode="÷"/><glyph d="M34 9l47 58q-50 62 -50 156q0 104 61 169t158 65q69 0 123 -35l41 50l48 -36l-45 -55q52 -63 52 -158q0 -103 -61 -168t-158 -65q-72 0 -124 35l-43 -53zM348 223q0 31 -10 61l-142 -174q22 -17 54 -17q45 0 71.5 36.5t26.5 93.5zM152 223q0 -34 9 -59l142 172 q-23 17 -53 17q-46 0 -72 -36t-26 -94z" glyph-name="oslash" horiz-adv-x="499" unicode="ø"/><glyph d="M450 447v-447h-124v41q-46 -51 -120 -51t-115.5 45t-41.5 120v292h124v-267q0 -37 18 -58t54 -21q29 0 51 16.5t29 45.5v284h125zM313 508h-113l-89 142h123z" glyph-name="ugrave" horiz-adv-x="503" unicode="ù"/><glyph d="M303 508h-112l79 142h123zM450 447v-447h-124v41q-46 -51 -120 -51t-115.5 45t-41.5 120v292h124v-267q0 -37 18 -58t54 -21q29 0 51 16.5t29 45.5v284h125z" glyph-name="uacute" horiz-adv-x="503" unicode="ú"/><glyph d="M304 647l95 -145h-98l-49 69l-49 -69h-98l95 145h104zM450 447v-447h-124v41q-46 -51 -120 -51t-115.5 45t-41.5 120v292h124v-267q0 -37 18 -58t54 -21q29 0 51 16.5t29 45.5v284h125z" glyph-name="ucircumflex" horiz-adv-x="503" unicode="û"/><glyph d="M104 570q0 28 19.5 47.5t47.5 19.5q27 0 46.5 -19.5t19.5 -47.5q0 -27 -19.5 -46.5t-46.5 -19.5q-28 0 -47.5 19.5t-19.5 46.5zM268 570q0 28 19.5 47.5t46.5 19.5t47 -19.5t20 -47.5q0 -27 -20 -46.5t-47 -19.5t-46.5 19.5t-19.5 46.5zM450 447v-447h-124v41 q-46 -51 -120 -51t-115.5 45t-41.5 120v292h124v-267q0 -37 18 -58t54 -21q29 0 51 16.5t29 45.5v284h125z" glyph-name="udieresis" horiz-adv-x="503" unicode="ü"/><glyph d="M241 -165h-122l65 163l-171 449h131l103 -297l102 297h125zM297 508h-112l79 142h123z" glyph-name="yacute" horiz-adv-x="487" unicode="ý"/><glyph d="M178 37v-202h-124v815h124v-240q16 19 47 33t65 14q94 0 149 -67.5t55 -166.5t-55 -166t-149 -67q-34 0 -65 14t-47 33zM178 297v-147q11 -23 34 -37.5t50 -14.5q49 0 78 35t29 90t-29 90.5t-78 35.5q-27 0 -49.5 -14.5t-34.5 -37.5z" glyph-name="thorn" horiz-adv-x="519" unicode="þ"/><glyph d="M241 -165h-122l65 163l-171 449h131l103 -297l102 297h125zM98 570q0 28 19.5 47.5t47.5 19.5q27 0 46.5 -19.5t19.5 -47.5q0 -27 -19.5 -46.5t-46.5 -19.5q-28 0 -47.5 19.5t-19.5 46.5zM262 570q0 28 19.5 47.5t46.5 19.5t47 -19.5t20 -47.5q0 -27 -20 -46.5t-47 -19.5 t-46.5 19.5t-19.5 46.5z" glyph-name="ydieresis" horiz-adv-x="487" unicode="ÿ"/><glyph d="M250 614h127l235 -614h-130l-55 148h-230l-54 -148h-128zM192 669v91h243v-91h-243zM312 460l-75 -204h150z" glyph-name="Amacron" horiz-adv-x="627" unicode="Ā"/><glyph d="M421 0h-119v24q-12 -12 -43 -22t-66 -10q-71 0 -118.5 39t-47.5 106q0 63 49.5 103t123.5 40q28 0 58 -8t44 -18v33q0 30 -18.5 49.5t-54.5 19.5q-50 0 -66 -42h-118q10 62 61.5 102.5t126.5 40.5q89 0 138.5 -45.5t49.5 -126.5v-285zM302 122v32q-8 18 -30.5 28.5 t-50.5 10.5q-32 0 -55.5 -14t-23.5 -41t23 -41t56 -14q28 0 50.5 10.5t30.5 28.5zM123 516v91h237v-91h-237z" glyph-name="amacron" horiz-adv-x="468" unicode="ā"/><glyph d="M250 614h127l235 -614h-130l-55 148h-230l-54 -148h-128zM313 663q-61 0 -97.5 35t-36.5 99h88q0 -48 46 -48q47 0 47 48h88q0 -64 -36.5 -99t-98.5 -35zM312 460l-75 -204h150z" glyph-name="Abreve" horiz-adv-x="627" unicode="Ă"/><glyph d="M421 0h-119v24q-12 -12 -43 -22t-66 -10q-71 0 -118.5 39t-47.5 106q0 63 49.5 103t123.5 40q28 0 58 -8t44 -18v33q0 30 -18.5 49.5t-54.5 19.5q-50 0 -66 -42h-118q10 62 61.5 102.5t126.5 40.5q89 0 138.5 -45.5t49.5 -126.5v-285zM302 122v32q-8 18 -30.5 28.5 t-50.5 10.5q-32 0 -55.5 -14t-23.5 -41t23 -41t56 -14q28 0 50.5 10.5t30.5 28.5zM239 492q-61 0 -97 37t-36 105h88q0 -58 45 -58t45 58h88q0 -68 -36 -105t-97 -37z" glyph-name="abreve" horiz-adv-x="468" unicode="ă"/><glyph d="M250 614h127l235 -614q-5 -7 -12 -16.5t-10 -14.5t-8 -11.5t-7 -10t-5 -8t-4 -7.5t-2 -6.5t-1.5 -6.5t-0.5 -7q0 -21 20 -21q14 0 37 16v-74q-30 -21 -62 -21q-39 0 -60.5 20.5t-21.5 54.5q0 19 8.5 40t17.5 34t28 39h-47l-55 148h-230l-54 -148h-128zM312 460l-75 -204 h150z" glyph-name="Aogonek" horiz-adv-x="627" unicode="Ą"/><glyph d="M301 122v32q-7 18 -29.5 28.5t-50.5 10.5q-32 0 -55.5 -14t-23.5 -41t23 -41t56 -14q28 0 50.5 10.5t29.5 28.5zM338 0h-37v24q-12 -12 -42.5 -22t-65.5 -10q-71 0 -118.5 39t-47.5 106q0 63 49.5 103t123.5 40q65 0 101 -26v33q0 30 -18 49.5t-54 19.5q-52 0 -67 -42 h-117q10 62 61.5 102.5t126.5 40.5q89 0 138.5 -45.5t49.5 -126.5v-285l-9 -12q-37 -52 -40 -67l-1 -9q0 -21 20 -21q13 0 36 16v-74q-28 -21 -61 -21q-39 0 -61 20.5t-22 54.5q0 19 9 40.5t17.5 33t28.5 39.5z" glyph-name="aogonek" horiz-adv-x="468" unicode="ą"/><glyph d="M29 307q0 140 81 228.5t205 88.5q106 0 172.5 -56.5t84.5 -151.5h-127q-35 94 -130 94q-72 0 -114 -56.5t-42 -146.5q0 -89 42 -146t114 -57q95 0 130 95h127q-18 -96 -84.5 -152.5t-172.5 -56.5q-124 0 -205 88.5t-81 228.5zM378 669h-122l80 122h135z" glyph-name="Cacute" horiz-adv-x="599" unicode="Ć"/><glyph d="M295 508h-112l79 142h123zM26 223q0 104 60 169t155 65q82 0 134 -44t62 -117h-122q-5 26 -24.5 40.5t-49.5 14.5q-42 0 -67 -35t-25 -93q0 -57 25 -92t67 -35q30 0 49.5 14.5t24.5 40.5h122q-10 -73 -61.5 -117t-134.5 -44q-95 0 -155 65t-60 168z" glyph-name="cacute" horiz-adv-x="459" unicode="ć"/><glyph d="M29 307q0 140 81 228.5t205 88.5q106 0 172.5 -56.5t84.5 -151.5h-127q-35 94 -130 94q-72 0 -114 -56.5t-42 -146.5q0 -89 42 -146t114 -57q95 0 130 95h127q-18 -96 -84.5 -152.5t-172.5 -56.5q-124 0 -205 88.5t-81 228.5zM375 796l100 -127h-105l-47 54l-47 -54h-105 l100 127h104z" glyph-name="Ccircumflex" horiz-adv-x="599" unicode="Ĉ"/><glyph d="M297 647l95 -145h-98l-49 69l-49 -69h-98l95 145h104zM26 223q0 104 60 169t155 65q82 0 134 -44t62 -117h-122q-5 26 -24.5 40.5t-49.5 14.5q-42 0 -67 -35t-25 -93q0 -57 25 -92t67 -35q30 0 49.5 14.5t24.5 40.5h122q-10 -73 -61.5 -117t-134.5 -44q-95 0 -155 65 t-60 168z" glyph-name="ccircumflex" horiz-adv-x="459" unicode="ĉ"/><glyph d="M393 734q0 -30 -22 -50.5t-52 -20.5t-52 20.5t-22 50.5q0 31 22 51t52 20t52 -20t22 -51zM29 307q0 140 81 228.5t205 88.5q106 0 172.5 -56.5t84.5 -151.5h-127q-35 94 -130 94q-72 0 -114 -56.5t-42 -146.5q0 -89 42 -146t114 -57q95 0 130 95h127 q-18 -96 -84.5 -152.5t-172.5 -56.5q-124 0 -205 88.5t-81 228.5z" glyph-name="Cdotaccent" horiz-adv-x="599" unicode="Ċ"/><glyph d="M26 223q0 104 60 169t155 65q82 0 134 -44t62 -117h-122q-5 26 -24.5 40.5t-49.5 14.5q-42 0 -67 -35t-25 -93q0 -57 25 -92t67 -35q30 0 49.5 14.5t24.5 40.5h122q-10 -73 -61.5 -117t-134.5 -44q-95 0 -155 65t-60 168zM319 579q0 -31 -22 -51t-52 -20t-52 20t-22 51 q0 30 22 50.5t52 20.5t52 -20.5t22 -50.5z" glyph-name="cdotaccent" horiz-adv-x="459" unicode="ċ"/><glyph d="M267 668l-100 127h105l47 -54l47 54h105l-100 -127h-104zM29 307q0 140 81 228.5t205 88.5q106 0 172.5 -56.5t84.5 -151.5h-127q-35 94 -130 94q-72 0 -114 -56.5t-42 -146.5q0 -89 42 -146t114 -57q95 0 130 95h127q-18 -96 -84.5 -152.5t-172.5 -56.5 q-124 0 -205 88.5t-81 228.5z" glyph-name="Ccaron" horiz-adv-x="599" unicode="Č"/><glyph d="M392 647l-95 -145h-104l-95 145h98l49 -69l49 69h98zM26 223q0 104 60 169t155 65q82 0 134 -44t62 -117h-122q-5 26 -24.5 40.5t-49.5 14.5q-42 0 -67 -35t-25 -93q0 -57 25 -92t67 -35q30 0 49.5 14.5t24.5 40.5h122q-10 -73 -61.5 -117t-134.5 -44q-95 0 -155 65 t-60 168z" glyph-name="ccaron" horiz-adv-x="459" unicode="č"/><glyph d="M226 668l-100 127h105l47 -54l47 54h105l-100 -127h-104zM186 113h85q87 0 134 52t47 142q0 91 -47 143t-134 52h-85v-389zM59 0v614h217q139 0 221 -83t82 -224t-82 -224t-221 -83h-217z" glyph-name="Dcaron" horiz-adv-x="609" unicode="Ď"/><glyph d="M604 483h-97l38 167h97zM341 0v37q-16 -19 -47 -33t-65 -14q-94 0 -148.5 66.5t-54.5 166.5t54.5 167t148.5 67q34 0 65 -14t47 -33v240h125v-650h-125zM341 150v147q-11 23 -34 37.5t-50 14.5q-49 0 -78 -35.5t-29 -90.5t29 -90t78 -35q28 0 50.5 14.5t33.5 37.5z" glyph-name="dcaron" horiz-adv-x="519" unicode="ď"/><glyph d="M25 264v103h51v247h217q139 0 221 -83t82 -224t-82 -224t-221 -83h-217v264h-51zM203 113h85q87 0 134 52t47 142q0 91 -47 143t-134 52h-85v-135h103v-103h-103v-151z" glyph-name="Dcroat" horiz-adv-x="626" unicode="Đ"/><glyph d="M248 497v84h93v69h125v-69h54v-84h-54v-497h-125v37q-16 -19 -47 -33t-65 -14q-94 0 -148.5 66.5t-54.5 166.5t54.5 167t148.5 67q34 0 65 -14t47 -33v87h-93zM341 150v147q-11 23 -34 37.5t-50 14.5q-49 0 -78 -35.5t-29 -90.5t29 -90t78 -35q28 0 50.5 14.5t33.5 37.5z" glyph-name="dcroat" horiz-adv-x="519" unicode="đ"/><glyph d="M150 669v91h243v-91h-243zM59 614h417v-112h-291v-134h264v-109h-264v-146h291v-113h-417v614z" glyph-name="Emacron" horiz-adv-x="516" unicode="Ē"/><glyph d="M128 516v91h237v-91h-237zM326 146h115q-12 -73 -63.5 -114.5t-134.5 -41.5q-97 0 -157 64.5t-60 168.5q0 101 60.5 167.5t154.5 66.5q96 0 149.5 -60.5t53.5 -161.5v-38h-298q3 -50 29 -78.5t68 -28.5q68 0 83 56zM242 356q-76 0 -93 -84h173q-1 37 -22 60.5t-58 23.5z" glyph-name="emacron" horiz-adv-x="469" unicode="ē"/><glyph d="M271 663q-61 0 -97.5 35t-36.5 99h88q0 -48 46 -48q47 0 47 48h88q0 -64 -36.5 -99t-98.5 -35zM59 614h417v-112h-291v-134h264v-109h-264v-146h291v-113h-417v614z" glyph-name="Ebreve" horiz-adv-x="516" unicode="Ĕ"/><glyph d="M326 146h115q-12 -73 -63.5 -114.5t-134.5 -41.5q-97 0 -157 64.5t-60 168.5q0 101 60.5 167.5t154.5 66.5q96 0 149.5 -60.5t53.5 -161.5v-38h-298q3 -50 29 -78.5t68 -28.5q68 0 83 56zM242 356q-76 0 -93 -84h173q-1 37 -22 60.5t-58 23.5zM246 492q-61 0 -97 37 t-36 105h88q0 -58 45 -58t45 58h88q0 -68 -36 -105t-97 -37z" glyph-name="ebreve" horiz-adv-x="469" unicode="ĕ"/><glyph d="M345 734q0 -30 -22 -50.5t-52 -20.5t-52 20.5t-22 50.5q0 31 22 51t52 20t52 -20t22 -51zM59 614h417v-112h-291v-134h264v-109h-264v-146h291v-113h-417v614z" glyph-name="Edotaccent" horiz-adv-x="516" unicode="Ė"/><glyph d="M326 146h115q-12 -73 -63.5 -114.5t-134.5 -41.5q-97 0 -157 64.5t-60 168.5q0 101 60.5 167.5t154.5 66.5q96 0 149.5 -60.5t53.5 -161.5v-38h-298q3 -50 29 -78.5t68 -28.5q68 0 83 56zM242 356q-76 0 -93 -84h173q-1 37 -22 60.5t-58 23.5zM320 579q0 -31 -22 -51 t-52 -20t-52 20t-22 51q0 30 22 50.5t52 20.5t52 -20.5t22 -50.5z" glyph-name="edotaccent" horiz-adv-x="469" unicode="ė"/><glyph d="M59 614h417v-112h-291v-134h264v-109h-264v-146h291v-113h-34q-4 -5 -10 -14q-25 -35 -32.5 -48t-7.5 -26q0 -21 21 -21q13 0 36 16v-74q-30 -21 -62 -21q-39 0 -60.5 20.5t-21.5 54.5q0 19 8.5 40t18 34.5t28.5 38.5h-301v614z" glyph-name="Eogonek" horiz-adv-x="516" unicode="Ę"/><glyph d="M242 356q-76 0 -93 -84h173q-1 37 -22 60.5t-58 23.5zM266 -9q-3 0 -11 -0.5t-12 -0.5q-97 0 -157 64.5t-60 168.5q0 101 60.5 167.5t154.5 66.5q96 0 149.5 -60.5t53.5 -161.5v-38h-298q3 -50 29 -78.5t68 -28.5q68 0 83 56h115q-10 -65 -63 -117q-73 -67 -73 -115 q0 -23 22 -23q13 0 36 16v-74q-30 -21 -62 -21q-39 0 -61.5 21t-22.5 56q0 45 49 102z" glyph-name="eogonek" horiz-adv-x="469" unicode="ę"/><glyph d="M224 668l-100 127h105l47 -54l47 54h105l-100 -127h-104zM59 614h417v-112h-291v-134h264v-109h-264v-146h291v-113h-417v614z" glyph-name="Ecaron" horiz-adv-x="516" unicode="Ě"/><glyph d="M393 647l-95 -145h-104l-95 145h98l49 -69l49 69h98zM326 146h115q-12 -73 -63.5 -114.5t-134.5 -41.5q-97 0 -157 64.5t-60 168.5q0 101 60.5 167.5t154.5 66.5q96 0 149.5 -60.5t53.5 -161.5v-38h-298q3 -50 29 -78.5t68 -28.5q68 0 83 56zM242 356q-76 0 -93 -84h173 q-1 37 -22 60.5t-58 23.5z" glyph-name="ecaron" horiz-adv-x="469" unicode="ě"/><glyph d="M374 796l100 -127h-105l-47 54l-47 -54h-105l100 127h104zM467 220h-117v102h242v-54q0 -126 -74.5 -202t-192.5 -76q-129 0 -212.5 88.5t-83.5 228.5t83.5 228.5t209.5 88.5q108 0 175 -56.5t85 -151.5h-129q-36 94 -131 94q-75 0 -119 -56.5t-44 -146.5 q0 -91 45 -147.5t121 -56.5q58 0 94.5 31.5t47.5 85.5z" glyph-name="Gcircumflex" horiz-adv-x="621" unicode="Ĝ"/><glyph d="M325 647l95 -145h-98l-49 69l-49 -69h-98l95 145h104zM339 30v26q-38 -46 -110 -46q-93 0 -148 65t-55 159q0 93 55 158t148 65q71 0 110 -45v35h123v-398q0 -111 -60 -167.5t-159 -56.5q-87 0 -142.5 42t-65.5 117h120q15 -63 88 -63q96 0 96 109zM339 161v146 q-28 46 -84 46q-49 0 -77 -33t-28 -86t28 -86.5t77 -33.5q27 0 49.5 13.5t34.5 33.5z" glyph-name="gcircumflex" horiz-adv-x="516" unicode="ĝ"/><glyph d="M323 663q-61 0 -97.5 35t-36.5 99h88q0 -48 46 -48q47 0 47 48h88q0 -64 -36.5 -99t-98.5 -35zM467 220h-117v102h242v-54q0 -126 -74.5 -202t-192.5 -76q-129 0 -212.5 88.5t-83.5 228.5t83.5 228.5t209.5 88.5q108 0 175 -56.5t85 -151.5h-129q-36 94 -131 94 q-75 0 -119 -56.5t-44 -146.5q0 -91 45 -147.5t121 -56.5q58 0 94.5 31.5t47.5 85.5z" glyph-name="Gbreve" horiz-adv-x="621" unicode="Ğ"/><glyph d="M339 30v26q-38 -46 -110 -46q-93 0 -148 65t-55 159q0 93 55 158t148 65q71 0 110 -45v35h123v-398q0 -111 -60 -167.5t-159 -56.5q-87 0 -142.5 42t-65.5 117h120q15 -63 88 -63q96 0 96 109zM339 161v146q-28 46 -84 46q-49 0 -77 -33t-28 -86t28 -86.5t77 -33.5 q27 0 49.5 13.5t34.5 33.5zM273 492q-61 0 -97 37t-36 105h88q0 -58 45 -58t45 58h88q0 -68 -36 -105t-97 -37z" glyph-name="gbreve" horiz-adv-x="516" unicode="ğ"/><glyph d="M398 734q0 -30 -22 -50.5t-52 -20.5t-52 20.5t-22 50.5q0 31 22 51t52 20t52 -20t22 -51zM467 220h-117v102h242v-54q0 -126 -74.5 -202t-192.5 -76q-129 0 -212.5 88.5t-83.5 228.5t83.5 228.5t209.5 88.5q108 0 175 -56.5t85 -151.5h-129q-36 94 -131 94 q-75 0 -119 -56.5t-44 -146.5q0 -91 45 -147.5t121 -56.5q58 0 94.5 31.5t47.5 85.5z" glyph-name="Gdotaccent" horiz-adv-x="621" unicode="Ġ"/><glyph d="M347 579q0 -31 -22 -51t-52 -20t-52 20t-22 51q0 30 22 50.5t52 20.5t52 -20.5t22 -50.5zM339 30v26q-38 -46 -110 -46q-93 0 -148 65t-55 159q0 93 55 158t148 65q71 0 110 -45v35h123v-398q0 -111 -60 -167.5t-159 -56.5q-87 0 -142.5 42t-65.5 117h120q15 -63 88 -63 q96 0 96 109zM339 161v146q-28 46 -84 46q-49 0 -77 -33t-28 -86t28 -86.5t77 -33.5q27 0 49.5 13.5t34.5 33.5z" glyph-name="gdotaccent" horiz-adv-x="516" unicode="ġ"/><glyph d="M255 -225l46 62q-22 4 -36 20t-14 40q0 28 20.5 46t50.5 18q29 0 49 -19t20 -50q0 -34 -33 -78l-27 -39h-76zM467 220h-117v102h242v-54q0 -126 -74.5 -202t-192.5 -76q-129 0 -212.5 88.5t-83.5 228.5t83.5 228.5t209.5 88.5q108 0 175 -56.5t85 -151.5h-129 q-36 94 -131 94q-75 0 -119 -56.5t-44 -146.5q0 -91 45 -147.5t121 -56.5q58 0 94.5 31.5t47.5 85.5z" glyph-name="Gcommaaccent" horiz-adv-x="621" unicode="Ģ"/><glyph d="M339 696l-47 -64q22 -5 36.5 -21.5t14.5 -40.5q0 -28 -21 -46.5t-51 -18.5t-50.5 19t-20.5 51q0 36 33 80l30 41h76zM339 30v26q-38 -46 -110 -46q-93 0 -148 65t-55 159q0 93 55 158t148 65q71 0 110 -45v35h123v-398q0 -111 -60 -167.5t-159 -56.5q-87 0 -142.5 42 t-65.5 117h120q15 -63 88 -63q96 0 96 109zM339 161v146q-28 46 -84 46q-49 0 -77 -33t-28 -86t28 -86.5t77 -33.5q27 0 49.5 13.5t34.5 33.5z" glyph-name="gcommaaccent" horiz-adv-x="516" unicode="ģ"/><glyph d="M465 614h128v-614h-128v258h-278v-258h-128v614h128v-244h278v244zM377 796l100 -127h-105l-47 54l-47 -54h-105l100 127h104z" glyph-name="Hcircumflex" horiz-adv-x="652" unicode="Ĥ"/><glyph d="M54 0v650h124v-244q44 51 120 51q75 0 116.5 -45t41.5 -120v-292h-124v266q0 36 -18.5 57.5t-54.5 21.5q-29 0 -51.5 -16.5t-29.5 -45.5v-283h-124zM305 813l100 -127h-105l-47 54l-47 -54h-105l100 127h104z" glyph-name="hcircumflex" horiz-adv-x="505" unicode="ĥ"/><glyph d="M25 418v102h49v94h128v-94h279v94h128v-94h49v-102h-49v-418h-128v216h-279v-216h-128v418h-49zM202 318h279v100h-279v-100z" glyph-name="Hbar" horiz-adv-x="683" unicode="Ħ"/><glyph d="M-1 497v84h55v69h124v-69h93v-84h-93v-91q44 51 120 51q75 0 116.5 -45t41.5 -120v-292h-124v266q0 36 -18.5 57.5t-54.5 21.5q-29 0 -51.5 -16.5t-29.5 -45.5v-283h-124v497h-55z" glyph-name="hbar" horiz-adv-x="505" unicode="ħ"/><glyph d="M187 614v-614h-128v614h128zM201 802h71q0 -63 -21 -101t-64 -38q-26 0 -61.5 21t-51.5 21q-28 0 -29 -39h-71q0 63 21 101t64 38q26 0 61.5 -21t51.5 -21q28 0 29 39z" glyph-name="Itilde" horiz-adv-x="245" unicode="Ĩ"/><glyph d="M172 643h68q0 -63 -19 -101t-56 -38q-21 0 -46.5 21.5t-35.5 21.5q-23 0 -25 -39h-67q0 62 18.5 100.5t55.5 38.5q21 0 46.5 -21.5t35.5 -21.5q23 0 25 39zM178 447v-447h-124v447h124z" glyph-name="itilde" horiz-adv-x="232" unicode="ĩ"/><glyph d="M187 614v-614h-128v614h128zM2 669v91h243v-91h-243z" glyph-name="Imacron" horiz-adv-x="245" unicode="Ī"/><glyph d="M178 447v-447h-124v447h124zM11 516v91h209v-91h-209z" glyph-name="imacron" horiz-adv-x="232" unicode="ī"/><glyph d="M187 614v-614h-128v614h128zM122 663q-61 0 -97.5 35t-36.5 99h88q0 -48 46 -48q47 0 47 48h88q0 -64 -36.5 -99t-98.5 -35z" glyph-name="Ibreve" horiz-adv-x="245" unicode="Ĭ"/><glyph d="M116 492q-54 0 -86.5 37t-32.5 105h83q0 -58 36 -58t36 58h83q0 -68 -32.5 -105t-86.5 -37zM178 447v-447h-124v447h124z" glyph-name="ibreve" horiz-adv-x="232" unicode="ĭ"/><glyph d="M187 614v-614q-5 -7 -12 -16.5t-10 -14.5t-8 -11.5t-7 -10t-5 -8t-4 -7.5t-2 -6.5t-1.5 -6.5t-0.5 -7q0 -21 20 -21q13 0 36 16v-74q-28 -21 -61 -21q-39 0 -61 20.5t-22 54.5q0 19 9 40.5t17.5 33t28.5 39.5h-45v614h128z" glyph-name="Iogonek" horiz-adv-x="245" unicode="Į"/><glyph d="M178 447v-447q-5 -7 -12 -16.5t-10 -14.5t-8 -11.5t-7 -10t-5 -8t-4 -7.5t-2 -6.5t-1.5 -6.5t-0.5 -7q0 -21 20 -21q14 0 37 16v-74q-30 -21 -62 -21q-39 0 -60.5 20.5t-21.5 54.5q0 19 8.5 40t17.5 34t28 39h-41v447h124zM189 576q0 -31 -21.5 -51t-51.5 -20 q-31 0 -52.5 20t-21.5 51q0 30 22 50.5t52 20.5t51.5 -20.5t21.5 -50.5z" glyph-name="iogonek" horiz-adv-x="232" unicode="į"/><glyph d="M187 614v-614h-128v614h128zM197 734q0 -30 -22 -50.5t-52 -20.5t-52 20.5t-22 50.5q0 31 22 51t52 20t52 -20t22 -51z" glyph-name="Idotaccent" horiz-adv-x="245" unicode="İ"/><glyph d="M178 447v-447h-124v447h124z" glyph-name="dotlessi" horiz-adv-x="232" unicode="ı"/><glyph d="M223 195h132q8 -89 90 -89q95 0 95 117v391h128v-392q0 -114 -59.5 -173t-161.5 -59t-160 56t-64 149zM187 614v-614h-128v614h128z" glyph-name="IJ" horiz-adv-x="717" unicode="Ĳ"/><glyph d="M178 447v-447h-124v447h124zM189 576q0 -31 -21.5 -51t-51.5 -20q-31 0 -52.5 20t-21.5 51q0 30 22 50.5t52 20.5t51.5 -20.5t21.5 -50.5zM410 447v-465q0 -75 -40 -116t-116 -41q-33 0 -48 5v99q21 -3 27 -3q53 0 53 57v464h124zM421 576q0 -31 -21.5 -51t-51.5 -20 q-31 0 -52.5 20t-21.5 51q0 30 22 50.5t52 20.5t51.5 -20.5t21.5 -50.5z" glyph-name="ij" horiz-adv-x="462" unicode="ĳ"/><glyph d="M15 195h132q8 -89 90 -89q95 0 95 117v391h128v-392q0 -114 -60 -173t-162 -59q-101 0 -159 56t-64 149zM449 796l100 -127h-105l-47 54l-47 -54h-105l100 127h104z" glyph-name="Jcircumflex" horiz-adv-x="509" unicode="Ĵ"/><glyph d="M168 647l77 -145h-95l-34 70l-35 -70h-95l78 145h104zM178 447v-465q0 -75 -40 -116t-116 -41q-33 0 -48 5v99q21 -3 27 -3q53 0 53 57v464h124z" glyph-name="jcircumflex" horiz-adv-x="230" unicode="ĵ"/><glyph d="M216 -225l46 62q-22 4 -36 20t-14 40q0 28 20.5 46t50.5 18q29 0 49 -19t20 -50q0 -34 -33 -78l-27 -39h-76zM187 614v-276l231 276h155l-234 -275l243 -339h-155l-182 251l-58 -69v-182h-128v614h128z" glyph-name="Kcommaaccent" horiz-adv-x="593" unicode="Ķ"/><glyph d="M178 -225l46 62q-22 4 -36 20t-14 40q0 28 20.5 46t50.5 18q29 0 49 -19t20 -50q0 -34 -33 -78l-27 -39h-76zM345 0l-131 180l-36 -39v-141h-124v650h124v-369l153 166h154l-181 -190l188 -257h-147z" glyph-name="kcommaaccent" horiz-adv-x="499" unicode="ķ"/><glyph d="M345 0l-131 180l-36 -39v-141h-124v447h124v-166l153 166h154l-181 -190l188 -257h-147z" glyph-name="kgreenlandic" horiz-adv-x="499" unicode="ĸ"/><glyph d="M188 669h-122l80 122h135zM59 0v614h128v-501h286v-113h-414z" glyph-name="Lacute" horiz-adv-x="507" unicode="Ĺ"/><glyph d="M175 694h-122l80 122h135zM178 650v-650h-124v650h124z" glyph-name="lacute" horiz-adv-x="232" unicode="ĺ"/><glyph d="M208 -225l46 62q-22 4 -36 20t-14 40q0 28 20.5 46t50.5 18q29 0 49 -19t20 -50q0 -34 -33 -78l-27 -39h-76zM59 0v614h128v-501h286v-113h-414z" glyph-name="Lcommaaccent" horiz-adv-x="507" unicode="Ļ"/><glyph d="M49 -225l46 62q-22 4 -36 20t-14 40q0 28 20.5 46t50.5 18q29 0 49 -19t20 -50q0 -34 -33 -78l-27 -39h-76zM178 650v-650h-124v650h124z" glyph-name="lcommaaccent" horiz-adv-x="232" unicode="ļ"/><glyph d="M360 447h-97l38 167h97zM59 0v614h128v-501h286v-113h-414z" glyph-name="Lcaron" horiz-adv-x="507" unicode="Ľ"/><glyph d="M316 483h-97l38 167h97zM178 650v-650h-124v650h124z" glyph-name="lcaron" horiz-adv-x="232" unicode="ľ"/><glyph d="M59 0v614h128v-501h286v-113h-414zM444 324q0 -31 -22 -51t-52 -20t-52 20t-22 51q0 30 22 50.5t52 20.5t52 -20.5t22 -50.5z" glyph-name="Ldot" horiz-adv-x="507" unicode="Ŀ"/><glyph d="M178 650v-650h-124v650h124zM384 328q0 -31 -22 -51t-52 -20t-52 20t-22 51q0 30 22 50.5t52 20.5t52 -20.5t22 -50.5z" glyph-name="ldot" horiz-adv-x="390" unicode="ŀ"/><glyph d="M22 201v108l58 24v281h128v-234l138 57v-108l-138 -57v-159h286v-113h-414v225z" glyph-name="Lslash" horiz-adv-x="528" unicode="Ł"/><glyph d="M199 650v-225l54 31v-98l-54 -32v-326h-124v267l-50 -30v99l50 29v285h124z" glyph-name="lslash" horiz-adv-x="274" unicode="ł"/><glyph d="M371 669h-122l80 122h135zM573 614v-614h-101l-290 409v-409h-123v614h120l271 -388v388h123z" glyph-name="Nacute" horiz-adv-x="632" unicode="Ń"/><glyph d="M312 508h-112l79 142h123zM54 0v447h124v-41q44 51 120 51q75 0 116.5 -45t41.5 -120v-292h-124v266q0 36 -18.5 57.5t-54.5 21.5q-29 0 -51.5 -16.5t-29.5 -45.5v-283h-124z" glyph-name="nacute" horiz-adv-x="505" unicode="ń"/><glyph d="M249 -225l46 62q-22 4 -36 20t-14 40q0 28 20.5 46t50.5 18q29 0 49 -19t20 -50q0 -34 -33 -78l-27 -39h-76zM573 614v-614h-101l-290 409v-409h-123v614h120l271 -388v388h123z" glyph-name="Ncommaaccent" horiz-adv-x="632" unicode="Ņ"/><glyph d="M193 -225l46 62q-22 4 -36 20t-14 40q0 28 20.5 46t50.5 18q29 0 49 -19t20 -50q0 -34 -33 -78l-27 -39h-76zM54 0v447h124v-41q44 51 120 51q75 0 116.5 -45t41.5 -120v-292h-124v266q0 36 -18.5 57.5t-54.5 21.5q-29 0 -51.5 -16.5t-29.5 -45.5v-283h-124z" glyph-name="ncommaaccent" horiz-adv-x="505" unicode="ņ"/><glyph d="M264 668l-100 127h105l47 -54l47 54h105l-100 -127h-104zM573 614v-614h-101l-290 409v-409h-123v614h120l271 -388v388h123z" glyph-name="Ncaron" horiz-adv-x="632" unicode="Ň"/><glyph d="M408 647l-95 -145h-104l-95 145h98l49 -69l49 69h98zM54 0v447h124v-41q44 51 120 51q75 0 116.5 -45t41.5 -120v-292h-124v266q0 36 -18.5 57.5t-54.5 21.5q-29 0 -51.5 -16.5t-29.5 -45.5v-283h-124z" glyph-name="ncaron" horiz-adv-x="505" unicode="ň"/><glyph d="M275 -164v118q43 -23 83 -23q45 0 66 24t23 80l-265 374v-409h-123v614h120l271 -388v388h123v-573q0 -224 -201 -224q-46 0 -97 19z" glyph-name="Eng" horiz-adv-x="632" unicode="Ŋ"/><glyph d="M332 -17v283q0 36 -18.5 57.5t-54.5 21.5q-29 0 -51.5 -16.5t-29.5 -45.5v-283h-124v447h124v-41q44 51 120 51q75 0 116.5 -45t41.5 -120v-310q0 -75 -40 -116t-116 -41q-32 0 -47 5v99q18 -3 27 -3q52 0 52 57z" glyph-name="eng" horiz-adv-x="505" unicode="ŋ"/><glyph d="M198 669v91h243v-91h-243zM610 307q0 -138 -81.5 -227.5t-209.5 -89.5t-209 89.5t-81 227.5q0 139 81 228t209 89t209.5 -89.5t81.5 -227.5zM481 307q0 91 -44.5 147t-117.5 56q-72 0 -116 -56t-44 -147t44 -147t116 -56q73 0 117.5 56t44.5 147z" glyph-name="Omacron" horiz-adv-x="640" unicode="Ō"/><glyph d="M127 516v91h237v-91h-237zM464 223q0 -103 -61 -168t-158 -65t-158 65t-61 168q0 104 61 169t158 65t158 -65t61 -169zM341 223q0 58 -25.5 93.5t-70.5 35.5t-70.5 -35.5t-25.5 -93.5q0 -57 25.5 -92.5t70.5 -35.5t70.5 35.5t25.5 92.5z" glyph-name="omacron" horiz-adv-x="489" unicode="ō"/><glyph d="M319 663q-61 0 -97.5 35t-36.5 99h88q0 -48 46 -48q47 0 47 48h88q0 -64 -36.5 -99t-98.5 -35zM610 307q0 -138 -81.5 -227.5t-209.5 -89.5t-209 89.5t-81 227.5q0 139 81 228t209 89t209.5 -89.5t81.5 -227.5zM481 307q0 91 -44.5 147t-117.5 56q-72 0 -116 -56 t-44 -147t44 -147t116 -56q73 0 117.5 56t44.5 147z" glyph-name="Obreve" horiz-adv-x="640" unicode="Ŏ"/><glyph d="M464 223q0 -103 -61 -168t-158 -65t-158 65t-61 168q0 104 61 169t158 65t158 -65t61 -169zM341 223q0 58 -25.5 93.5t-70.5 35.5t-70.5 -35.5t-25.5 -93.5q0 -57 25.5 -92.5t70.5 -35.5t70.5 35.5t25.5 92.5zM245 492q-61 0 -97 37t-36 105h88q0 -58 45 -58t45 58h88 q0 -68 -36 -105t-97 -37z" glyph-name="obreve" horiz-adv-x="489" unicode="ŏ"/><glyph d="M610 307q0 -138 -81.5 -227.5t-209.5 -89.5t-209 89.5t-81 227.5q0 139 81 228t209 89t209.5 -89.5t81.5 -227.5zM481 307q0 91 -44.5 147t-117.5 56q-72 0 -116 -56t-44 -147t44 -147t116 -56q73 0 117.5 56t44.5 147zM301 669h-102l66 122h105zM449 669h-103l67 122 h104z" glyph-name="Ohungarumlaut" horiz-adv-x="640" unicode="Ő"/><glyph d="M219 508h-98l67 142h99zM360 508h-98l67 142h99zM464 223q0 -103 -61 -168t-158 -65t-158 65t-61 168q0 104 61 169t158 65t158 -65t61 -169zM341 223q0 58 -25.5 93.5t-70.5 35.5t-70.5 -35.5t-25.5 -93.5q0 -57 25.5 -92.5t70.5 -35.5t70.5 35.5t25.5 92.5z" glyph-name="ohungarumlaut" horiz-adv-x="489" unicode="ő"/><glyph d="M792 614v-112h-272v-134h245v-109h-245v-146h272v-113h-460q-139 0 -221 83t-82 224t82 224t221 83h460zM338 113h56v389h-56q-87 0 -134 -52t-47 -143t47 -142.5t134 -51.5z" glyph-name="OE" horiz-adv-x="832" unicode="Œ"/><glyph d="M553 -10q-94 0 -155 64q-59 -64 -153 -64q-97 0 -158 65t-61 168q0 104 61 169t158 65q93 0 153 -65q62 65 153 65q96 0 149.5 -60.5t53.5 -161.5v-38h-298q3 -50 29 -78.5t68 -28.5q68 0 83 56h115q-12 -73 -63.5 -114.5t-134.5 -41.5zM341 223q0 58 -25.5 93.5 t-70.5 35.5t-70.5 -35.5t-25.5 -93.5q0 -57 25.5 -92.5t70.5 -35.5t70.5 35.5t25.5 92.5zM552 356q-76 0 -93 -84h173q-2 37 -22.5 60.5t-57.5 23.5z" glyph-name="oe" horiz-adv-x="778" unicode="œ"/><glyph d="M253 229h-67v-229h-127v614h253q99 0 157 -51t58 -144q0 -72 -37 -118.5t-103 -62.5l162 -238h-144zM186 505v-171h118q47 0 72 23t25 62q0 40 -25 63t-72 23h-118zM335 669h-122l80 122h135z" glyph-name="Racute" horiz-adv-x="563" unicode="Ŕ"/><glyph d="M241 508h-112l79 142h123zM325 449v-124q-25 15 -62 15q-32 0 -55 -16.5t-30 -46.5v-277h-124v447h124v-44q32 54 100 54q33 0 47 -8z" glyph-name="racute" horiz-adv-x="351" unicode="ŕ"/><glyph d="M253 229h-67v-229h-127v614h253q99 0 157 -51t58 -144q0 -72 -37 -118.5t-103 -62.5l162 -238h-144zM186 505v-171h118q47 0 72 23t25 62q0 40 -25 63t-72 23h-118zM213 -225l46 62q-22 4 -36 20t-14 40q0 28 20.5 46t50.5 18q29 0 49 -19t20 -50q0 -34 -33 -78l-27 -39 h-76z" glyph-name="Rcommaaccent" horiz-adv-x="563" unicode="Ŗ"/><glyph d="M47 -225l46 62q-22 4 -36 20t-14 40q0 28 20.5 46t50.5 18q29 0 49 -19t20 -50q0 -34 -33 -78l-27 -39h-76zM325 449v-124q-25 15 -62 15q-32 0 -55 -16.5t-30 -46.5v-277h-124v447h124v-44q32 54 100 54q33 0 47 -8z" glyph-name="rcommaaccent" horiz-adv-x="351" unicode="ŗ"/><glyph d="M253 229h-67v-229h-127v614h253q99 0 157 -51t58 -144q0 -72 -37 -118.5t-103 -62.5l162 -238h-144zM186 505v-171h118q47 0 72 23t25 62q0 40 -25 63t-72 23h-118zM228 668l-100 127h105l47 -54l47 54h105l-100 -127h-104z" glyph-name="Rcaron" horiz-adv-x="563" unicode="Ř"/><glyph d="M338 647l-95 -145h-104l-95 145h98l49 -69l49 69h98zM325 449v-124q-25 15 -62 15q-32 0 -55 -16.5t-30 -46.5v-277h-124v447h124v-44q32 54 100 54q33 0 47 -8z" glyph-name="rcaron" horiz-adv-x="351" unicode="ř"/><glyph d="M17 175h132q25 -79 122 -79q47 0 75 20.5t28 56.5q0 28 -17.5 44t-57.5 25l-110 25q-156 35 -156 168q0 83 62 136t159 53q102 0 163.5 -48.5t77.5 -129.5h-127q-25 73 -113 73q-44 0 -70.5 -19.5t-26.5 -52.5q0 -51 69 -67l112 -26q161 -37 161 -173q0 -87 -64 -139 t-164 -52q-103 0 -171 49t-84 136zM315 669h-122l80 122h135z" glyph-name="Sacute" horiz-adv-x="530" unicode="Ś"/><glyph d="M270 508h-112l79 142h123zM25 133h123q15 -49 75 -49q63 0 63 44q0 15 -10.5 23.5t-34.5 14.5l-90 20q-116 27 -116 126q0 64 51 104.5t127 40.5q83 0 130.5 -36.5t59.5 -101.5h-118q-14 44 -70 44q-24 0 -41.5 -11t-17.5 -31q0 -25 40 -35l92 -21q119 -29 119 -130 q0 -67 -51.5 -106t-131.5 -39q-83 0 -136 37.5t-63 105.5z" glyph-name="sacute" horiz-adv-x="437" unicode="ś"/><glyph d="M17 175h132q25 -79 122 -79q47 0 75 20.5t28 56.5q0 28 -17.5 44t-57.5 25l-110 25q-156 35 -156 168q0 83 62 136t159 53q102 0 163.5 -48.5t77.5 -129.5h-127q-25 73 -113 73q-44 0 -70.5 -19.5t-26.5 -52.5q0 -51 69 -67l112 -26q161 -37 161 -173q0 -87 -64 -139 t-164 -52q-103 0 -171 49t-84 136zM317 796l100 -127h-105l-47 54l-47 -54h-105l100 127h104z" glyph-name="Scircumflex" horiz-adv-x="530" unicode="Ŝ"/><glyph d="M271 647l95 -145h-98l-49 69l-49 -69h-98l95 145h104zM25 133h123q15 -49 75 -49q63 0 63 44q0 15 -10.5 23.5t-34.5 14.5l-90 20q-116 27 -116 126q0 64 51 104.5t127 40.5q83 0 130.5 -36.5t59.5 -101.5h-118q-14 44 -70 44q-24 0 -41.5 -11t-17.5 -31q0 -25 40 -35 l92 -21q119 -29 119 -130q0 -67 -51.5 -106t-131.5 -39q-83 0 -136 37.5t-63 105.5z" glyph-name="scircumflex" horiz-adv-x="437" unicode="ŝ"/><glyph d="M17 175h132q25 -79 122 -79q47 0 75 20.5t28 56.5q0 28 -17.5 44t-57.5 25l-110 25q-156 35 -156 168q0 83 62 136t159 53q102 0 163.5 -48.5t77.5 -129.5h-127q-25 73 -113 73q-44 0 -70.5 -19.5t-26.5 -52.5q0 -51 69 -67l112 -26q161 -37 161 -173q0 -87 -64 -139 t-164 -52q-103 0 -171 49t-84 136zM248 -186h-110l70 139h114z" glyph-name="Scedilla" horiz-adv-x="530" unicode="Ş"/><glyph d="M25 133h123q15 -49 75 -49q63 0 63 44q0 15 -10.5 23.5t-34.5 14.5l-90 20q-116 27 -116 126q0 64 51 104.5t127 40.5q83 0 130.5 -36.5t59.5 -101.5h-118q-14 44 -70 44q-24 0 -41.5 -11t-17.5 -31q0 -25 40 -35l92 -21q119 -29 119 -130q0 -67 -51.5 -106t-131.5 -39 q-83 0 -136 37.5t-63 105.5zM205 -186h-110l70 139h114z" glyph-name="scedilla" horiz-adv-x="437" unicode="ş"/><glyph d="M213 668l-100 127h105l47 -54l47 54h105l-100 -127h-104zM17 175h132q25 -79 122 -79q47 0 75 20.5t28 56.5q0 28 -17.5 44t-57.5 25l-110 25q-156 35 -156 168q0 83 62 136t159 53q102 0 163.5 -48.5t77.5 -129.5h-127q-25 73 -113 73q-44 0 -70.5 -19.5t-26.5 -52.5 q0 -51 69 -67l112 -26q161 -37 161 -173q0 -87 -64 -139t-164 -52q-103 0 -171 49t-84 136z" glyph-name="Scaron" horiz-adv-x="530" unicode="Š"/><glyph d="M366 647l-95 -145h-104l-95 145h98l49 -69l49 69h98zM25 133h123q15 -49 75 -49q63 0 63 44q0 15 -10.5 23.5t-34.5 14.5l-90 20q-116 27 -116 126q0 64 51 104.5t127 40.5q83 0 130.5 -36.5t59.5 -101.5h-118q-14 44 -70 44q-24 0 -41.5 -11t-17.5 -31q0 -25 40 -35 l92 -21q119 -29 119 -130q0 -67 -51.5 -106t-131.5 -39q-83 0 -136 37.5t-63 105.5z" glyph-name="scaron" horiz-adv-x="437" unicode="š"/><glyph d="M221 -225l46 62q-22 4 -36 20t-14 40q0 28 20.5 46t50.5 18q29 0 49 -19t20 -50q0 -34 -33 -78l-27 -39h-76zM26 502v112h524v-112h-198v-502h-129v502h-197z" glyph-name="Tcedilla" horiz-adv-x="575" unicode="Ţ"/><glyph d="M80 135v212h-67v100h67v121h124v-121h98v-100h-98v-194q0 -52 51 -52q28 0 54 15v-111q-26 -14 -80 -14q-70 0 -109.5 36t-39.5 108zM133 -225l46 62q-22 4 -36 20t-14 40q0 28 20.5 46t50.5 18q29 0 49 -19t20 -50q0 -34 -33 -78l-27 -39h-76z" glyph-name="tcedilla" horiz-adv-x="345" unicode="ţ"/><glyph d="M236 668l-100 127h105l47 -54l47 54h105l-100 -127h-104zM26 502v112h524v-112h-198v-502h-129v502h-197z" glyph-name="Tcaron" horiz-adv-x="575" unicode="Ť"/><glyph d="M80 135v212h-67v100h67v121h124v-121h98v-100h-98v-194q0 -52 51 -52q28 0 54 15v-111q-26 -14 -80 -14q-70 0 -109.5 36t-39.5 108zM343 490h-97l38 167h97z" glyph-name="tcaron" horiz-adv-x="345" unicode="ť"/><glyph d="M26 502v112h524v-112h-198v-140h102v-106h-102v-256h-129v256h-101v106h101v140h-197z" glyph-name="Tbar" horiz-adv-x="575" unicode="Ŧ"/><glyph d="M29 199v86h56v70h-68v92h68v121h124v-121h97v-92h-97v-70h77v-86h-77v-46q0 -52 50 -52q28 0 54 15v-111q-26 -14 -79 -14q-70 0 -109.5 36t-39.5 108v64h-56z" glyph-name="tbar" horiz-adv-x="349" unicode="ŧ"/><glyph d="M383 802h71q0 -63 -21 -101t-64 -38q-26 0 -61.5 21t-51.5 21q-28 0 -29 -39h-71q0 63 21 101t64 38q26 0 61.5 -21t51.5 -21q28 0 29 39zM305 -10q-117 0 -186 66.5t-69 190.5v367h128v-354q0 -155 127 -155t127 155v354h128v-367q0 -124 -68.5 -190.5t-186.5 -66.5z" glyph-name="Utilde" horiz-adv-x="610" unicode="Ũ"/><glyph d="M450 447v-447h-124v41q-46 -51 -120 -51t-115.5 45t-41.5 120v292h124v-267q0 -37 18 -58t54 -21q29 0 51 16.5t29 45.5v284h125zM324 643h71q0 -63 -21.5 -101t-64.5 -38q-24 0 -55 23t-44 23q-28 0 -30 -42h-71q0 63 21.5 101t64.5 38q24 0 55 -23t44 -23q28 0 30 42z" glyph-name="utilde" horiz-adv-x="503" unicode="ũ"/><glyph d="M184 669v91h243v-91h-243zM305 -10q-117 0 -186 66.5t-69 190.5v367h128v-354q0 -155 127 -155t127 155v354h128v-367q0 -124 -68.5 -190.5t-186.5 -66.5z" glyph-name="Umacron" horiz-adv-x="610" unicode="Ū"/><glyph d="M450 447v-447h-124v41q-46 -51 -120 -51t-115.5 45t-41.5 120v292h124v-267q0 -37 18 -58t54 -21q29 0 51 16.5t29 45.5v284h125zM134 516v91h237v-91h-237z" glyph-name="umacron" horiz-adv-x="503" unicode="ū"/><glyph d="M305 663q-61 0 -97.5 35t-36.5 99h88q0 -48 46 -48q47 0 47 48h88q0 -64 -36.5 -99t-98.5 -35zM305 -10q-117 0 -186 66.5t-69 190.5v367h128v-354q0 -155 127 -155t127 155v354h128v-367q0 -124 -68.5 -190.5t-186.5 -66.5z" glyph-name="Ubreve" horiz-adv-x="610" unicode="Ŭ"/><glyph d="M450 447v-447h-124v41q-46 -51 -120 -51t-115.5 45t-41.5 120v292h124v-267q0 -37 18 -58t54 -21q29 0 51 16.5t29 45.5v284h125zM252 492q-61 0 -97 37t-36 105h88q0 -58 45 -58t45 58h88q0 -68 -36 -105t-97 -37z" glyph-name="ubreve" horiz-adv-x="503" unicode="ŭ"/><glyph d="M305 -10q-117 0 -186 66.5t-69 190.5v367h128v-354q0 -155 127 -155t127 155v354h128v-367q0 -124 -68.5 -190.5t-186.5 -66.5zM404 743q0 -41 -28.5 -69t-70.5 -28t-70.5 28t-28.5 69t28.5 69t70.5 28t70.5 -28t28.5 -69zM345 743q0 17 -11.5 28.5t-28.5 11.5 q-16 0 -27.5 -11.5t-11.5 -28.5t11 -28t28 -11t28.5 11.5t11.5 27.5z" glyph-name="Uring" horiz-adv-x="610" unicode="Ů"/><glyph d="M351 584q0 -41 -28.5 -69t-70.5 -28t-70.5 28t-28.5 69t28.5 69t70.5 28t70.5 -28t28.5 -69zM292 584q0 16 -12 28t-28 12t-27.5 -11.5t-11.5 -28.5q0 -16 11.5 -27.5t27.5 -11.5q17 0 28.5 11.5t11.5 27.5zM450 447v-447h-124v41q-46 -51 -120 -51t-115.5 45t-41.5 120 v292h124v-267q0 -37 18 -58t54 -21q29 0 51 16.5t29 45.5v284h125z" glyph-name="uring" horiz-adv-x="503" unicode="ů"/><glyph d="M305 -10q-117 0 -186 66.5t-69 190.5v367h128v-354q0 -155 127 -155t127 155v354h128v-367q0 -124 -68.5 -190.5t-186.5 -66.5zM287 669h-102l66 122h105zM435 669h-103l67 122h104z" glyph-name="Uhungarumlaut" horiz-adv-x="610" unicode="Ű"/><glyph d="M450 447v-447h-124v41q-46 -51 -120 -51t-115.5 45t-41.5 120v292h124v-267q0 -37 18 -58t54 -21q29 0 51 16.5t29 45.5v284h125zM226 508h-98l67 142h99zM367 508h-98l67 142h99z" glyph-name="uhungarumlaut" horiz-adv-x="503" unicode="ű"/><glyph d="M305 -10q-117 0 -186 66.5t-69 190.5v367h128v-354q0 -155 127 -155t127 155v354h128v-367q0 -80 -27.5 -132.5t-83.5 -91.5q-92 -62 -92 -111q0 -21 21 -21q13 0 36 16v-74q-30 -21 -62 -21q-38 0 -60 20.5t-22 54.5q0 50 51 103h-16z" glyph-name="Uogonek" horiz-adv-x="610" unicode="Ų"/><glyph d="M450 447v-447l-9 -12q-37 -52 -40 -67l-1 -9q0 -21 20 -21q13 0 36 16v-74q-30 -21 -61 -21q-39 0 -61 20.5t-22 54.5q0 19 9 40.5t17.5 33t28.5 39.5h-41v41q-46 -51 -120 -51t-115.5 45t-41.5 120v292h124v-267q0 -37 18 -58t54 -21q29 0 51 16.5t29 45.5v284h125z" glyph-name="uogonek" horiz-adv-x="503" unicode="ų"/><glyph d="M349 614h100l106 -413l101 413h126l-160 -614h-117l-108 405l-108 -405h-117l-160 614h129l100 -413zM449 796l100 -127h-105l-47 54l-47 -54h-105l100 127h104z" glyph-name="Wcircumflex" horiz-adv-x="794" unicode="Ŵ"/><glyph d="M388 647l95 -145h-98l-49 69l-49 -69h-98l95 145h104zM385 447l74 -285l80 285h120l-136 -447h-114l-73 274l-73 -274h-114l-136 447h124l80 -285l73 285h95z" glyph-name="wcircumflex" horiz-adv-x="672" unicode="ŵ"/><glyph d="M299 354l148 260h135l-223 -381v-233h-127v233l-221 381h139zM348 796l100 -127h-105l-47 54l-47 -54h-105l100 127h104z" glyph-name="Ycircumflex" horiz-adv-x="593" unicode="Ŷ"/><glyph d="M241 -165h-122l65 163l-171 449h131l103 -297l102 297h125zM298 647l95 -145h-98l-49 69l-49 -69h-98l95 145h104z" glyph-name="ycircumflex" horiz-adv-x="487" unicode="ŷ"/><glyph d="M299 354l148 260h135l-223 -381v-233h-127v233l-221 381h139zM147 730q0 29 19 48.5t48 19.5q28 0 47.5 -19.5t19.5 -48.5q0 -27 -19.5 -46.5t-47.5 -19.5t-47.5 19.5t-19.5 46.5zM312 730q0 29 19.5 48.5t47.5 19.5t48 -19.5t20 -48.5q0 -27 -20 -46.5t-48 -19.5 t-47.5 19.5t-19.5 46.5z" glyph-name="Ydieresis" horiz-adv-x="593" unicode="Ÿ"/><glyph d="M514 113v-113h-474v93l308 409h-303v112h465v-92l-306 -409h310zM349 669h-122l80 122h135z" glyph-name="Zacute" horiz-adv-x="554" unicode="Ź"/><glyph d="M287 508h-112l79 142h123zM412 100v-100h-374v80l215 267h-207v100h362v-80l-211 -267h215z" glyph-name="zacute" horiz-adv-x="453" unicode="ź"/><glyph d="M368 734q0 -30 -22 -50.5t-52 -20.5t-52 20.5t-22 50.5q0 31 22 51t52 20t52 -20t22 -51zM514 113v-113h-474v93l308 409h-303v112h465v-92l-306 -409h310z" glyph-name="Zdotaccent" horiz-adv-x="554" unicode="Ż"/><glyph d="M412 100v-100h-374v80l215 267h-207v100h362v-80l-211 -267h215zM310 579q0 -31 -22 -51t-52 -20t-52 20t-22 51q0 30 22 50.5t52 20.5t52 -20.5t22 -50.5z" glyph-name="zdotaccent" horiz-adv-x="453" unicode="ż"/><glyph d="M242 668l-100 127h105l47 -54l47 54h105l-100 -127h-104zM514 113v-113h-474v93l308 409h-303v112h465v-92l-306 -409h310z" glyph-name="Zcaron" horiz-adv-x="554" unicode="Ž"/><glyph d="M383 647l-95 -145h-104l-95 145h98l49 -69l49 69h98zM412 100v-100h-374v80l215 267h-207v100h362v-80l-211 -267h215z" glyph-name="zcaron" horiz-adv-x="453" unicode="ž"/><glyph d="M60 253v100h83l20 112q14 77 59.5 118t119.5 41q37 0 68 -12v-105q-22 12 -54 12q-58 0 -70 -62l-19 -104h86v-100h-103l-47 -267q-14 -79 -52 -119t-113 -40q-38 0 -69 12v99q24 -11 54 -11q26 0 38 14.5t18 46.5l46 265h-65z" glyph-name="florin" horiz-adv-x="422" unicode="ƒ"/><glyph d="M250 614h127l235 -614h-130l-55 148h-230l-54 -148h-128zM410 713q0 -34 -28.5 -57.5t-69.5 -23.5q-42 0 -70.5 23.5t-28.5 57.5t28.5 57.5t70.5 23.5q41 0 69.5 -23.5t28.5 -57.5zM312 460l-75 -204h150zM378 812h-121l57 94h135zM351 713q0 14 -11 22.5t-28 8.5 t-28.5 -8.5t-11.5 -22.5q0 -13 11.5 -22t28.5 -9t28 9t11 22z" glyph-name="Aringacute" horiz-adv-x="627" unicode="Ǻ"/><glyph d="M337 556q0 -34 -28.5 -57.5t-69.5 -23.5q-42 0 -70.5 23.5t-28.5 57.5t28.5 57.5t70.5 23.5q41 0 69.5 -23.5t28.5 -57.5zM278 556q0 13 -11 22t-28 9t-28.5 -9t-11.5 -22q0 -14 11 -22.5t29 -8.5q17 0 28 8.5t11 22.5zM305 655h-122l58 94h135zM421 0h-119v24 q-12 -12 -43 -22t-66 -10q-71 0 -118.5 39t-47.5 106q0 63 49.5 103t123.5 40q28 0 58 -8t44 -18v33q0 30 -18.5 49.5t-54.5 19.5q-50 0 -66 -42h-118q10 62 61.5 102.5t126.5 40.5q89 0 138.5 -45.5t49.5 -126.5v-285zM302 122v32q-8 18 -30.5 28.5t-50.5 10.5 q-32 0 -55.5 -14t-23.5 -41t23 -41t56 -14q28 0 50.5 10.5t30.5 28.5z" glyph-name="aringacute" horiz-adv-x="468" unicode="ǻ"/><glyph d="M365 614h474v-112h-272v-134h245v-109h-245v-146h272v-113h-398v148h-208l-84 -148h-134zM441 512l-146 -256h146v256zM641 669h-122l80 122h135z" glyph-name="AEacute" horiz-adv-x="879" unicode="Ǽ"/><glyph d="M436 508h-112l79 142h123zM213 85q64 0 86 51v58h-80q-32 0 -54.5 -13.5t-22.5 -40.5t21 -41t50 -14zM588 144h115q-12 -71 -64 -112.5t-134 -41.5q-95 0 -155 62q-61 -61 -157 -61q-70 0 -118 38.5t-48 101.5q0 66 51.5 104t129.5 38h91v15q0 30 -18.5 49.5t-54.5 19.5 q-54 0 -68 -43h-113q10 62 60.5 102.5t123.5 40.5q94 0 140 -59q59 59 135 59q95 0 148.5 -61t53.5 -161v-40h-297q3 -50 29 -77.5t68 -27.5q67 0 82 54zM504 356q-75 0 -92 -84h173q-2 37 -23 60.5t-58 23.5z" glyph-name="aeacute" horiz-adv-x="731" unicode="ǽ"/><glyph d="M50 31l52 63q-68 87 -68 213q0 139 81 228t209 89q97 0 171 -55l48 58l58 -44l-54 -65q68 -87 68 -211q0 -138 -81.5 -227.5t-209.5 -89.5q-97 0 -169 53l-47 -56zM163 307q0 -67 21 -113l236 284q-40 32 -96 32q-72 0 -116.5 -56.5t-44.5 -146.5zM486 307q0 65 -21 111 l-235 -284q39 -30 94 -30q73 0 117.5 56.5t44.5 146.5zM379 669h-122l80 122h135z" glyph-name="Oslashacute" horiz-adv-x="649" unicode="Ǿ"/><glyph d="M34 9l47 58q-50 62 -50 156q0 104 61 169t158 65q69 0 123 -35l41 50l48 -36l-45 -55q52 -63 52 -158q0 -103 -61 -168t-158 -65q-72 0 -124 35l-43 -53zM300 508h-112l79 142h123zM348 223q0 31 -10 61l-142 -174q22 -17 54 -17q45 0 71.5 36.5t26.5 93.5zM152 223 q0 -34 9 -59l142 172q-23 17 -53 17q-46 0 -72 -36t-26 -94z" glyph-name="oslashacute" horiz-adv-x="499" unicode="ǿ"/><glyph d="M194 -225l46 62q-22 4 -36 20t-14 40q0 28 20.5 46t50.5 18q29 0 49 -19t20 -50q0 -34 -33 -78l-27 -39h-76zM17 175h132q25 -79 122 -79q47 0 75 20.5t28 56.5q0 28 -17.5 44t-57.5 25l-110 25q-156 35 -156 168q0 83 62 136t159 53q102 0 163.5 -48.5t77.5 -129.5h-127 q-25 73 -113 73q-44 0 -70.5 -19.5t-26.5 -52.5q0 -51 69 -67l112 -26q161 -37 161 -173q0 -87 -64 -139t-164 -52q-103 0 -171 49t-84 136z" glyph-name="Scommaaccent" horiz-adv-x="530" unicode="Ș"/><glyph d="M153 -225l46 62q-22 4 -36 20t-14 40q0 28 20.5 46t50.5 18q29 0 49 -19t20 -50q0 -34 -33 -78l-27 -39h-76zM25 133h123q15 -49 75 -49q63 0 63 44q0 15 -10.5 23.5t-34.5 14.5l-90 20q-116 27 -116 126q0 64 51 104.5t127 40.5q83 0 130.5 -36.5t59.5 -101.5h-118 q-14 44 -70 44q-24 0 -41.5 -11t-17.5 -31q0 -25 40 -35l92 -21q119 -29 119 -130q0 -67 -51.5 -106t-131.5 -39q-83 0 -136 37.5t-63 105.5z" glyph-name="scommaaccent" horiz-adv-x="437" unicode="ș"/><glyph d="M178 447v-465q0 -75 -40 -116t-116 -41q-33 0 -48 5v99q21 -3 27 -3q53 0 53 57v464h124z" glyph-name="uni0237" horiz-adv-x="230" unicode="ȷ"/><glyph d="M302 647l95 -145h-98l-49 69l-49 -69h-98l95 145h104z" glyph-name="circumflex" horiz-adv-x="500" unicode="ˆ"/><glyph d="M397 647l-95 -145h-104l-95 145h98l49 -69l49 69h98z" glyph-name="caron" horiz-adv-x="500" unicode="ˇ"/><glyph d="M250 492q-61 0 -97 37t-36 105h88q0 -58 45 -58t45 58h88q0 -68 -36 -105t-97 -37z" glyph-name="breve" horiz-adv-x="500" unicode="˘"/><glyph d="M324 579q0 -31 -22 -51t-52 -20t-52 20t-22 51q0 30 22 50.5t52 20.5t52 -20.5t22 -50.5z" glyph-name="dotaccent" horiz-adv-x="500" unicode="˙"/><glyph d="M349 584q0 -41 -28.5 -69t-70.5 -28t-70.5 28t-28.5 69t28.5 69t70.5 28t70.5 -28t28.5 -69zM290 584q0 16 -12 28t-28 12t-27.5 -11.5t-11.5 -28.5q0 -16 11.5 -27.5t27.5 -11.5q17 0 28.5 11.5t11.5 27.5z" glyph-name="ring" horiz-adv-x="500" unicode="˚"/><glyph d="M233 6h81q-6 -8 -14 -19.5t-11.5 -16.5t-9 -13t-7.5 -12t-5 -9t-4 -8.5t-2 -7.5t-1 -8q0 -21 21 -21q13 0 36 16v-74q-30 -21 -62 -21q-39 0 -60.5 20.5t-21.5 54.5q0 20 10 42.5t18.5 34.5t31.5 42z" glyph-name="ogonek" horiz-adv-x="500" unicode="˛"/><glyph d="M322 643h71q0 -63 -21.5 -101t-64.5 -38q-24 0 -55 23t-44 23q-28 0 -30 -42h-71q0 63 21.5 101t64.5 38q24 0 55 -23t44 -23q28 0 30 42z" glyph-name="tilde" horiz-adv-x="500" unicode="˜"/><glyph d="M194 508h-98l67 142h99zM335 508h-98l67 142h99z" glyph-name="hungarumlaut" horiz-adv-x="500" unicode="˝"/><glyph d="M460 669h-122l-93 122h135zM349 614h100l106 -413l101 413h126l-160 -614h-117l-108 405l-108 -405h-117l-160 614h129l100 -413z" glyph-name="Wgrave" horiz-adv-x="794" unicode="Ẁ"/><glyph d="M385 447l74 -285l80 285h120l-136 -447h-114l-73 274l-73 -274h-114l-136 447h124l80 -285l73 285h95zM397 508h-113l-89 142h123z" glyph-name="wgrave" horiz-adv-x="672" unicode="ẁ"/><glyph d="M457 669h-122l80 122h135zM349 614h100l106 -413l101 413h126l-160 -614h-117l-108 405l-108 -405h-117l-160 614h129l100 -413z" glyph-name="Wacute" horiz-adv-x="794" unicode="Ẃ"/><glyph d="M386 508h-112l79 142h123zM385 447l74 -285l80 285h120l-136 -447h-114l-73 274l-73 -274h-114l-136 447h124l80 -285l73 285h95z" glyph-name="wacute" horiz-adv-x="672" unicode="ẃ"/><glyph d="M247 730q0 29 19 48.5t48 19.5q28 0 47.5 -19.5t19.5 -48.5q0 -27 -19.5 -46.5t-47.5 -19.5t-47.5 19.5t-19.5 46.5zM412 730q0 29 19.5 48.5t47.5 19.5t48 -19.5t20 -48.5q0 -27 -20 -46.5t-48 -19.5t-47.5 19.5t-19.5 46.5zM349 614h100l106 -413l101 413h126 l-160 -614h-117l-108 405l-108 -405h-117l-160 614h129l100 -413z" glyph-name="Wdieresis" horiz-adv-x="794" unicode="Ẅ"/><glyph d="M188 570q0 28 19.5 47.5t47.5 19.5q27 0 46.5 -19.5t19.5 -47.5q0 -27 -19.5 -46.5t-46.5 -19.5q-28 0 -47.5 19.5t-19.5 46.5zM352 570q0 28 19.5 47.5t46.5 19.5t47 -19.5t20 -47.5q0 -27 -20 -46.5t-47 -19.5t-46.5 19.5t-19.5 46.5zM385 447l74 -285l80 285h120 l-136 -447h-114l-73 274l-73 -274h-114l-136 447h124l80 -285l73 285h95z" glyph-name="wdieresis" horiz-adv-x="672" unicode="ẅ"/><glyph d="M299 354l148 260h135l-223 -381v-233h-127v233l-221 381h139zM362 669h-122l-93 122h135z" glyph-name="Ygrave" horiz-adv-x="593" unicode="Ỳ"/><glyph d="M241 -165h-122l65 163l-171 449h131l103 -297l102 297h125zM307 508h-113l-89 142h123z" glyph-name="ygrave" horiz-adv-x="487" unicode="ỳ"/><glyph d="M38 217v90h395v-90h-395z" glyph-name="endash" horiz-adv-x="471" unicode="–"/><glyph d="M38 217v90h766v-90h-766z" glyph-name="emdash" horiz-adv-x="842" unicode="—"/><glyph d="M188 614l-71 -110q27 -5 44 -24t17 -48q0 -33 -22.5 -54.5t-55.5 -21.5q-34 0 -56.5 22.5t-22.5 62.5q0 41 33 90l55 83h79z" glyph-name="quoteleft" horiz-adv-x="205" unicode="‘"/><glyph d="M17 366l71 110q-27 5 -44 24t-17 48q0 33 22.5 54.5t55.5 21.5q34 0 56.5 -22.5t22.5 -62.5q0 -41 -33 -90l-55 -83h-79z" glyph-name="quoteright" horiz-adv-x="205" unicode="’"/><glyph d="M17 -110l71 110q-27 5 -44 24t-17 48q0 33 22.5 54.5t55.5 21.5q34 0 56.5 -22.5t22.5 -62.5q0 -41 -33 -90l-55 -83h-79z" glyph-name="quotesinglbase" horiz-adv-x="205" unicode="‚"/><glyph d="M188 614l-71 -110q27 -5 44 -24t17 -48q0 -33 -22.5 -54.5t-55.5 -21.5q-34 0 -56.5 22.5t-22.5 62.5q0 41 33 90l55 83h79zM383 614l-71 -110q27 -5 44 -24t17 -48q0 -33 -22.5 -54.5t-55.5 -21.5q-34 0 -56.5 22.5t-22.5 62.5q0 41 33 90l55 83h79z" glyph-name="quotedblleft" horiz-adv-x="400" unicode="“"/><glyph d="M17 366l71 110q-27 5 -44 24t-17 48q0 33 22.5 54.5t55.5 21.5q34 0 56.5 -22.5t22.5 -62.5q0 -41 -33 -90l-55 -83h-79zM212 366l71 110q-27 5 -44 24t-17 48q0 33 22.5 54.5t55.5 21.5q34 0 56.5 -22.5t22.5 -62.5q0 -41 -33 -90l-55 -83h-79z" glyph-name="quotedblright" horiz-adv-x="400" unicode="”"/><glyph d="M17 -110l71 110q-27 5 -44 24t-17 48q0 33 22.5 54.5t55.5 21.5q34 0 56.5 -22.5t22.5 -62.5q0 -41 -33 -90l-55 -83h-79zM212 -110l71 110q-27 5 -44 24t-17 48q0 33 22.5 54.5t55.5 21.5q34 0 56.5 -22.5t22.5 -62.5q0 -41 -33 -90l-55 -83h-79z" glyph-name="quotedblbase" horiz-adv-x="400" unicode="„"/><glyph d="M27 475v83h99v92h85v-92h99v-83h-99v-199h-85v199h-99z" glyph-name="dagger" horiz-adv-x="337" unicode="†"/><glyph d="M31 499v76h100v75h84v-75h101v-76h-101v-73h101v-75h-101v-75h-84v75h-100v75h100v73h-100z" glyph-name="daggerdbl" horiz-adv-x="347" unicode="‡"/><glyph d="M336 262q0 -66 -44.5 -109t-109.5 -43t-109 42.5t-44 109.5t44 110t109 43t109.5 -43t44.5 -110z" glyph-name="bullet" horiz-adv-x="364" unicode="•"/><glyph d="M27 73q0 34 22.5 56.5t55.5 22.5t55.5 -22.5t22.5 -56.5t-22.5 -57t-55.5 -23t-55.5 23t-22.5 57zM257 73q0 34 22.5 56.5t55.5 22.5t55.5 -22.5t22.5 -56.5t-22.5 -57t-55.5 -23t-55.5 23t-22.5 57zM487 73q0 34 22.5 56.5t55.5 22.5t55.5 -22.5t22.5 -56.5t-22.5 -57 t-55.5 -23t-55.5 23t-22.5 57z" glyph-name="ellipsis" horiz-adv-x="670" unicode="…"/><glyph d="M103 0l380 614h84l-380 -614h-84zM27 481q0 59 41.5 101t100.5 42t100.5 -42t41.5 -101t-41.5 -100t-100.5 -41t-100.5 41t-41.5 100zM643 133q0 -59 -41.5 -101t-100.5 -42t-100.5 42t-41.5 101t41.5 100t100.5 41t100.5 -41t41.5 -100zM560 133q0 24 -17 41t-42 17 t-42.5 -17t-17.5 -41q0 -25 17.5 -42.5t42.5 -17.5t42 17.5t17 42.5zM957 133q0 -59 -41 -101t-100 -42t-101 42t-42 101q0 58 42 99.5t101 41.5t100 -41t41 -100zM874 133q0 24 -17 41t-41 17q-25 0 -42.5 -17t-17.5 -41q0 -25 17.5 -42.5t42.5 -17.5q24 0 41 17.5t17 42.5 zM110 481q0 -24 17 -41t42 -17q24 0 41.5 17t17.5 41q0 25 -17.5 42.5t-41.5 17.5q-25 0 -42 -17.5t-17 -42.5z" glyph-name="perthousand" horiz-adv-x="984" unicode="‰"/><glyph d="M229 61h-112l-92 161l92 161h112l-92 -161z" glyph-name="guilsinglleft" horiz-adv-x="254" unicode="‹"/><glyph d="M137 61h-112l92 161l-92 161h112l92 -161z" glyph-name="guilsinglright" horiz-adv-x="254" unicode="›"/><glyph d="M336 614l-369 -614h-87l369 614h87z" glyph-name="fraction" horiz-adv-x="216" unicode="⁄"/><glyph d="M26 333v77h58q23 98 87.5 156t151.5 58q86 0 140 -48.5t72 -135.5h-115q-20 72 -97 72q-84 0 -115 -102h166l-15 -77h-164v-26q0 -20 1 -29h155l-16 -77h-126q31 -99 114 -99q77 0 97 72h115q-18 -87 -72 -135.5t-140 -48.5q-87 0 -151 57t-87 154h-59v77h48q-1 9 -1 29 v26h-47z" glyph-name="Euro" horiz-adv-x="556" unicode="€"/><glyph d="M669 307q0 -136 -92.5 -226.5t-224.5 -90.5t-224.5 90.5t-92.5 226.5t92.5 226.5t224.5 90.5t224.5 -90.5t92.5 -226.5zM622 307q0 116 -79 193.5t-191 77.5t-191 -77.5t-79 -193.5t79 -193.5t191 -77.5t191 77.5t79 193.5zM390 235h-69v-111h-96v369h165q61 0 98 -34 t37 -95t-37 -95t-98 -34zM430 364q0 45 -49 45h-60v-90h60q49 0 49 45z" glyph-name="uni2117" horiz-adv-x="704" unicode="℗"/><glyph d="M20 550v64h228v-64h-77v-190h-74v190h-77zM447 360h-46l-51 146v-146h-67v254h88l53 -153l54 153h87v-254h-67v146z" glyph-name="trademark" horiz-adv-x="602" unicode="™"/><glyph d="M599 614l-431 -614h-90l431 614h90zM520 139v67h23q40 0 40 33q0 14 -9 22.5t-25 8.5q-15 0 -25.5 -11t-12.5 -26h-89q6 49 38.5 81t85.5 32q57 0 89.5 -28.5t32.5 -76.5q0 -47 -36 -69q40 -20 40 -68q0 -49 -33.5 -79t-91.5 -30q-57 0 -91.5 31.5t-38.5 83.5h94 q2 -17 12 -27.5t27 -10.5t26.5 9t9.5 25q0 33 -40 33h-26zM209 614v-341h-90v237l-88 -43v92l115 55h63z" glyph-name="uni2153" horiz-adv-x="717" unicode="⅓"/><glyph d="M666 614l-431 -614h-90l431 614h90zM202 512q0 14 -8.5 22t-22.5 8t-23.5 -10.5t-9.5 -23.5h-95q5 50 39 82.5t88 32.5q56 0 89.5 -29.5t33.5 -77.5q0 -21 -10 -41.5t-21 -32t-33 -33.5l-58 -55h122v-78h-248v61l118 116q39 37 39 59zM587 140v65h23q41 0 41 34 q0 14 -9.5 23t-25.5 9t-26 -11t-12 -27h-89q6 49 38.5 81t85.5 32q57 0 89.5 -28.5t32.5 -76.5q0 -47 -36 -69q40 -20 40 -68q0 -49 -33.5 -79t-91.5 -30q-57 0 -91.5 31.5t-38.5 83.5h93q2 -18 12 -28.5t28 -10.5q17 0 27 9.5t10 25.5t-11 25t-29 9h-27z" glyph-name="uni2154" horiz-adv-x="784" unicode="⅔"/><glyph d="M599 614l-431 -614h-90l431 614h90zM551 66q18 0 29.5 10t11.5 27q0 16 -11.5 25.5t-29.5 9.5t-30 -9.5t-12 -25.5q0 -17 12 -27t30 -10zM551 211q16 0 26 9.5t10 24.5t-10 24.5t-26 9.5q-17 0 -27.5 -9.5t-10.5 -24.5t10.5 -24.5t27.5 -9.5zM551 -5q-56 0 -93.5 27 t-37.5 73q0 58 54 78q-43 22 -43 74q0 47 34.5 73.5t85.5 26.5q49 0 84 -26.5t35 -73.5q0 -52 -44 -74q54 -19 54 -78q0 -46 -36.5 -73t-92.5 -27zM209 614v-341h-90v237l-88 -43v92l115 55h63z" glyph-name="uni215B" horiz-adv-x="728" unicode="⅛"/><glyph d="M584 66q18 0 30 10t12 27q0 16 -12 25.5t-30 9.5t-29.5 -9.5t-11.5 -25.5q0 -17 11.5 -27t29.5 -10zM584 211q16 0 26.5 9.5t10.5 24.5t-10.5 24.5t-26.5 9.5t-26.5 -9.5t-10.5 -24.5t10.5 -24.5t26.5 -9.5zM584 -5q-56 0 -93 27t-37 73q0 58 54 78q-43 22 -43 74 q0 47 34.5 73.5t84.5 26.5t85 -26.5t35 -73.5q0 -51 -44 -74q54 -19 54 -78q0 -46 -37 -73t-93 -27zM632 614l-430 -614h-90l431 614h89zM140 412v66h23q41 0 41 33q0 15 -9 24t-25 9t-26.5 -11t-12.5 -27h-89q6 49 38.5 81t86.5 32q56 0 89 -29t33 -77q0 -21 -10.5 -40.5 t-26.5 -28.5q40 -20 40 -68q0 -49 -33 -79t-91 -30t-92.5 31.5t-37.5 84.5h93q1 -18 11.5 -29t27.5 -11t27.5 10t10.5 26q0 33 -41 33h-27z" glyph-name="uni215C" horiz-adv-x="762" unicode="⅜"/><glyph d="M591 66q18 0 29.5 10t11.5 27q0 16 -11.5 25.5t-29.5 9.5t-30 -9.5t-12 -25.5q0 -17 12 -27t30 -10zM591 211q16 0 26.5 9.5t10.5 24.5t-10.5 24.5t-26.5 9.5t-26.5 -9.5t-10.5 -24.5t10.5 -24.5t26.5 -9.5zM591 -5q-56 0 -93 27t-37 73q0 59 53 78q-42 22 -42 74 q0 47 34.5 73.5t84.5 26.5t84.5 -26.5t34.5 -73.5q0 -52 -43 -74q54 -19 54 -78q0 -46 -37 -73t-93 -27zM639 614l-431 -614h-89l431 614h89zM173 426q-19 0 -38 -17h-77v205h215v-76h-140v-52q20 13 51 13q52 0 83 -31.5t31 -82.5q0 -53 -33.5 -85.5t-90.5 -32.5 q-58 0 -93 30.5t-39 82.5h92q2 -16 13 -26t27 -10q17 0 27.5 11.5t10.5 28.5q0 19 -10.5 30.5t-28.5 11.5z" glyph-name="uni215D" horiz-adv-x="769" unicode="⅝"/><glyph d="M531 66q18 0 29.5 10t11.5 27q0 16 -11.5 25.5t-29.5 9.5t-30 -9.5t-12 -25.5q0 -17 12 -27t30 -10zM531 211q16 0 26 9.5t10 24.5t-10 24.5t-26 9.5t-27 -9.5t-11 -24.5t11 -24.5t27 -9.5zM531 -5q-56 0 -93.5 27t-37.5 73q0 58 54 78q-43 22 -43 74q0 47 34.5 73.5 t85.5 26.5q50 0 84.5 -26.5t34.5 -73.5q0 -52 -43 -74q54 -20 54 -78q0 -46 -37 -73t-93 -27zM579 614l-431 -614h-89l430 614h90zM280 551l-107 -278h-94l102 261h-142v80h241v-63z" glyph-name="uni215E" horiz-adv-x="708" unicode="⅞"/><glyph d="M64 251v96h432v-96h-432z" glyph-name="minus" horiz-adv-x="560" unicode="−"/><glyph d="M73 312v90q58 38 116 38q37 0 98 -18.5t98 -18.5q58 0 119 39v-90q-61 -39 -119 -39q-37 0 -98 19t-98 19q-59 0 -116 -39zM73 159v89q57 39 116 39q37 0 98 -19t98 -19q60 0 119 39v-90q-60 -38 -119 -38q-37 0 -98 18.5t-98 18.5q-58 0 -116 -38z" glyph-name="approxequal" horiz-adv-x="576" unicode="≈"/><glyph d="M73 338v87h257l63 94h83l-63 -94h91v-87h-149l-52 -77h201v-86h-258l-63 -94h-82l62 94h-90v86h148l51 77h-199z" glyph-name="notequal" horiz-adv-x="576" unicode="≠"/><glyph d="M60 303v117l329 125v-103l-234 -80l234 -80v-102zM60 60v93h329v-93h-329z" glyph-name="lessequal" horiz-adv-x="448" unicode="≤"/><glyph d="M389 420v-117l-329 -123v102l233 80l-233 80v103zM389 153v-93h-329v93h329z" glyph-name="greaterequal" horiz-adv-x="448" unicode="≥"/><glyph d="M504 447v-447h-124v447h124zM515 576q0 -31 -21.5 -51t-51.5 -20q-31 0 -52.5 20t-21.5 51q0 30 22 50.5t52 20.5t51.5 -20.5t21.5 -50.5zM316 647v-105q-17 12 -44 12q-61 0 -61 -62v-45h93v-100h-93v-347h-122v347h-73v100h73v53q0 75 43 117t115 42q42 0 69 -12z" glyph-name="fi" horiz-adv-x="558" unicode="ﬁ"/><glyph d="M504 650v-650h-124v650h124zM316 647v-105q-17 12 -44 12q-61 0 -61 -62v-45h93v-100h-93v-347h-122v347h-73v100h73v53q0 75 43 117t115 42q42 0 69 -12z" glyph-name="fl" horiz-adv-x="558" unicode="ﬂ"/><glyph d="M178 447v-447h-124v447h124zM190 579q0 -31 -22 -51t-52 -20t-52 20t-22 51q0 30 22 50.5t52 20.5t52 -20.5t22 -50.5z" glyph-name="i.dot" horiz-adv-x="232"/><glyph d="M185 -225l46 62q-22 4 -36 20t-14 40q0 28 20.5 46t50.5 18q29 0 49 -19t20 -50q0 -34 -33 -78l-27 -39h-76z" glyph-name="space_uni0326" horiz-adv-x="500"/><glyph d="M316 696l-47 -64q22 -5 36.5 -21.5t14.5 -40.5q0 -28 -21 -46.5t-51 -18.5t-50.5 19t-20.5 51q0 36 33 80l30 41h76z" glyph-name="space_uni0326.alt" horiz-adv-x="500"/><glyph d="M323 -109q0 -30 -21.5 -50t-51.5 -20t-51.5 20t-21.5 50t21.5 50t51.5 20t51.5 -20t21.5 -50z" glyph-name="space_dotbelowcomb" horiz-adv-x="500"/><glyph d="M272 483h-97l38 167h97z" glyph-name="caron.Slovak" horiz-adv-x="500"/><glyph d="M265 -186h-110l70 139h114z" glyph-name="cedilla.alt" horiz-adv-x="500"/><glyph d="M357 669h-122l-93 122h135z" glyph-name="grave.cap" horiz-adv-x="500"/><glyph d="M264 669h-122l80 122h135z" glyph-name="acute.cap" horiz-adv-x="500"/><glyph d="M302 796l100 -127h-105l-47 54l-47 -54h-105l100 127h104z" glyph-name="circumflex.cap" horiz-adv-x="500"/><glyph d="M198 668l-100 127h105l47 -54l47 54h105l-100 -127h-104z" glyph-name="caron.cap" horiz-adv-x="500"/><glyph d="M328 802h71q0 -63 -21 -101t-64 -38q-26 0 -61.5 21t-51.5 21q-27 0 -29 -39h-71q0 63 21 101t64 38q26 0 61.5 -21t51.5 -21q27 0 29 39z" glyph-name="tilde.cap" horiz-adv-x="500"/><glyph d="M128 669v91h243v-91h-243z" glyph-name="macron.cap" horiz-adv-x="500"/><glyph d="M249 663q-61 0 -97.5 35t-36.5 99h88q0 -48 46 -48q47 0 47 48h88q0 -64 -36.5 -99t-98.5 -35z" glyph-name="breve.cap" horiz-adv-x="500"/><glyph d="M324 734q0 -30 -22 -50.5t-52 -20.5t-52 20.5t-22 50.5q0 31 22 51t52 20t52 -20t22 -51z" glyph-name="dotaccent.cap" horiz-adv-x="500"/><glyph d="M100 730q0 29 19 48.5t48 19.5q28 0 47.5 -19.5t19.5 -48.5q0 -27 -19.5 -46.5t-47.5 -19.5t-47.5 19.5t-19.5 46.5zM265 730q0 29 19.5 48.5t47.5 19.5t48 -19.5t20 -48.5q0 -27 -20 -46.5t-48 -19.5t-47.5 19.5t-19.5 46.5z" glyph-name="dieresis.cap" horiz-adv-x="500"/><glyph d="M349 743q0 -41 -28.5 -69t-70.5 -28t-70.5 28t-28.5 69t28.5 69t70.5 28t70.5 -28t28.5 -69zM290 743q0 17 -12 28.5t-28 11.5t-27.5 -11.5t-11.5 -28.5t11.5 -28t27.5 -11q17 0 28.5 11.5t11.5 27.5z" glyph-name="ring.cap" horiz-adv-x="500"/><glyph d="M193 669h-102l66 122h105zM341 669h-103l67 122h104z" glyph-name="hungarumlaut.cap" horiz-adv-x="500"/><glyph d="M30 544q0 32 22.5 54.5t55.5 22.5t56 -22.5t23 -54.5q0 -33 -23 -55.5t-56 -22.5t-55.5 22.5t-22.5 55.5zM33 0l30 416h91l30 -416h-151z" glyph-name="exclamdown.cap" horiz-adv-x="217"/><glyph d="M301 543q0 -33 -23 -55.5t-56 -22.5t-56 22.5t-23 55.5q0 32 23 54.5t56 22.5t56 -22.5t23 -54.5zM20 170q0 16 3 30.5t10 29t12 24.5t17.5 25t18 21.5t21 23t19.5 20.5q36 38 36 71h123q-2 -36 -13.5 -60t-42.5 -60q-5 -6 -25 -27.5t-27 -30.5t-15 -26t-8 -34 q0 -33 20.5 -53.5t56.5 -20.5q37 0 58 24t23 61h132q-9 -88 -67 -143.5t-149 -55.5q-94 0 -148.5 49t-54.5 132z" glyph-name="questiondown.cap" horiz-adv-x="456"/><glyph d="M229 141h-112l-92 161l92 161h112l-92 -161z" glyph-name="guilsinglleft.cap" horiz-adv-x="254"/><glyph d="M137 141h-112l92 161l-92 161h112l92 -161z" glyph-name="guilsinglright.cap" horiz-adv-x="254"/><glyph d="M223 141h-106l-92 161l92 161h106l-92 -161zM395 141h-106l-92 161l92 161h106l-92 -161z" glyph-name="guillemotleft.cap" horiz-adv-x="420"/><glyph d="M303 141h-106l92 161l-92 161h106l92 -161zM131 141h-106l92 161l-92 161h106l92 -161z" glyph-name="guillemotright.cap" horiz-adv-x="420"/><glyph d="M5 -64l248 734h115l-248 -734h-115z" glyph-name="slash.cap" horiz-adv-x="373"/><glyph d="M120 670l248 -734h-115l-248 734h115z" glyph-name="backslash.cap" horiz-adv-x="373"/><glyph d="M59 -64v734h110v-734h-110z" glyph-name="bar.cap" horiz-adv-x="228"/><glyph d="M29 300q0 34 22.5 56.5t55.5 22.5t55.5 -22.5t22.5 -56.5t-22.5 -57t-55.5 -23t-55.5 23t-22.5 57z" glyph-name="periodcentered.cap" horiz-adv-x="214"/><glyph d="M336 299q0 -66 -44.5 -109t-109.5 -43t-109 43t-44 109q0 67 44 110.5t109 43.5t109.5 -43.5t44.5 -110.5z" glyph-name="bullet.cap" horiz-adv-x="364"/><glyph d="M38 245v109h241v-109h-241z" glyph-name="hyphen.cap" horiz-adv-x="317"/><glyph d="M38 254v91h395v-91h-395z" glyph-name="endash.cap" horiz-adv-x="471"/><glyph d="M38 254v91h766v-91h-766z" glyph-name="emdash.cap" horiz-adv-x="842"/><glyph d="M30 303q0 139 74 237.5t201 129.5v-125q-71 -19 -114 -83t-43 -159t43 -159t114 -83v-125q-127 31 -201 129.5t-74 237.5z" glyph-name="parenleft.cap" horiz-adv-x="325"/><glyph d="M295 303q0 -139 -74 -237.5t-201 -129.5v125q71 19 114 83t43 159t-43 159t-114 83v125q127 -31 201 -129.5t74 -237.5z" glyph-name="parenright.cap" horiz-adv-x="325"/><glyph d="M175 563v-520h127v-107h-243v734h243v-107h-127z" glyph-name="bracketleft.cap" horiz-adv-x="322"/><glyph d="M147 43v520h-127v107h243v-734h-243v107h127z" glyph-name="bracketright.cap" horiz-adv-x="322"/><glyph d="M213 220v-148q0 -29 29 -29h91v-107h-108q-57 0 -93 36t-36 94v154q0 29 -29 29h-47v108h47q29 0 29 29v154q0 58 36 94t93 36h108v-107h-91q-29 0 -29 -29v-148q0 -54 -47 -83q47 -29 47 -83z" glyph-name="braceleft.cap" horiz-adv-x="353"/><glyph d="M140 72v148q0 54 47 83q-47 29 -47 83v148q0 29 -29 29h-91v107h108q57 0 93 -36t36 -94v-154q0 -29 29 -29h47v-108h-47q-29 0 -29 -29v-154q0 -58 -36 -94t-93 -36h-108v107h91q29 0 29 29z" glyph-name="braceright.cap" horiz-adv-x="353"/><glyph d="M574 478l-41 -236q-7 -47 30 -47q46 0 74 46t28 125q0 104 -72 164t-186 60q-133 0 -217 -85.5t-84 -222.5q0 -61 18.5 -109t48.5 -78t70.5 -49.5t81 -27.5t83.5 -8q116 0 224 48v-73q-94 -47 -224 -47q-76 0 -143 20.5t-122 60.5t-87 108t-32 155q0 161 107 271t276 110 q148 0 242 -84.5t94 -212.5q0 -117 -59 -180t-144 -63q-76 0 -112 53q-14 -24 -41 -38t-56 -14q-62 0 -99 43t-37 108q0 86 52.5 149t132.5 63q28 0 51.5 -10.5t33.5 -26.5l6 28h103zM430 258l18 100q-5 16 -20.5 26.5t-36.5 10.5q-38 0 -62.5 -33t-24.5 -79q0 -29 15 -47.5 t43 -18.5q42 0 68 41z" glyph-name="at.cap" horiz-adv-x="768"/><glyph d="M25 333v77h53q22 98 82.5 156t142.5 58q81 0 132.5 -48.5t67.5 -135.5h-113q-17 72 -87 72q-75 0 -103 -102h151l-14 -77h-149v-26v-29h141l-14 -77h-114q28 -100 102 -100q70 0 87 73h113q-16 -87 -67.5 -135.5t-132.5 -48.5t-141.5 57t-83.5 154h-53v77h42v29v26h-42z" glyph-name="Euro.lt"/><glyph d="M217 -89v97q-74 12 -121.5 56.5t-60.5 115.5h124q25 -74 114 -74q43 0 68 19t25 52q0 28 -17 43.5t-56 24.5l-98 24q-146 34 -146 163q0 70 46 117.5t122 57.5v91h106v-95q65 -15 104.5 -56.5t52.5 -104.5h-119q-23 67 -106 67q-40 0 -63.5 -18.5t-23.5 -49.5 q0 -47 64 -64l104 -25q150 -37 150 -168q0 -71 -44.5 -117.5t-118.5 -58.5v-97h-106z" glyph-name="dollar.lt"/><glyph d="M55 233q0 89 45 150t120 78v91h106v-91q60 -14 96 -56.5t43 -104.5h-121q-3 28 -23 44.5t-51 16.5q-42 0 -67 -35t-25 -93q0 -57 25 -92t67 -35q31 0 51 16t23 44h121q-7 -62 -43 -104.5t-96 -55.5v-93h-106v92q-75 17 -120 78t-45 150z" glyph-name="cent.lt"/><glyph d="M227 424v-73h129v-97h-129v-60q0 -63 -21 -91h276v-103h-445v103h51q20 35 20 91v60h-71v97h71v71q0 87 52.5 144.5t139.5 57.5q79 0 127.5 -45.5t55.5 -120.5h-114q-8 61 -67 61q-37 0 -56 -26t-19 -69z" glyph-name="sterling.lt"/><glyph d="M47 256v84h106l-139 274h134l115 -237l113 237h130l-141 -274h106v-84h-149v-56h149v-84h-149v-116h-126v116h-149v84h149v56h-149z" glyph-name="yen.lt"/><glyph d="M130 253v100h83l20 112q14 77 60 118t119 41q37 0 68 -12v-105q-22 12 -54 12q-58 0 -70 -62l-19 -104h86v-100h-103l-47 -267q-13 -79 -51.5 -119t-113.5 -40q-38 0 -69 12v99q24 -11 54 -11q26 0 38 14.5t18 46.5l46 265h-65z" glyph-name="florin.lt"/><glyph d="M260 -10q-107 0 -171 87.5t-64 229.5t64 229.5t171 87.5t171 -87.5t64 -229.5t-64 -229.5t-171 -87.5zM260 510q-57 0 -84 -55.5t-27 -147.5t27 -147.5t84 -55.5q56 0 83 55.5t27 147.5t-27 147.5t-83 55.5z" glyph-name="zero.lt"/><glyph d="M72 0v111h157v357l-155 -78v126l198 98h81v-503h138v-111h-419z" glyph-name="one.lt"/><glyph d="M334 436q0 33 -21.5 53.5t-57.5 20.5q-37 0 -58.5 -23.5t-23.5 -61.5h-132q9 87 67 143t147 56q95 0 150.5 -49.5t55.5 -133.5q0 -36 -19.5 -74t-40.5 -63t-62 -66l-119 -127h248v-111h-425v83l194 205q5 6 17 19t17 19t15 17t14 16.5t11 15t10 16t6.5 15t5 15.5t1.5 15z" glyph-name="two.lt"/><glyph d="M218 263v99h38q41 0 66 20t25 57q0 33 -23 55t-61 22q-40 0 -63.5 -24t-26.5 -61h-124q10 84 68.5 138.5t149.5 54.5q93 0 147 -49.5t54 -129.5q0 -44 -21 -80.5t-54 -52.5q42 -18 64 -54.5t22 -81.5q0 -81 -57.5 -133.5t-154.5 -52.5q-102 0 -162 54t-68 146h128 q4 -42 29 -66.5t70 -24.5q40 0 66 22.5t26 58.5q0 38 -27 60.5t-71 22.5h-40z" glyph-name="three.lt"/><glyph d="M356 614l-200 -387h135v127h116v-127h92v-105h-92v-122h-114v122h-273v92l212 400h124z" glyph-name="four.lt"/><glyph d="M265 300q-59 0 -94 -41h-102v355h369v-111h-265v-125q41 28 104 28q91 0 147 -57t56 -149q0 -94 -59 -152t-156 -58q-99 0 -160 54t-69 146h127q5 -41 32.5 -65.5t70.5 -24.5t69 28t26 72t-26 72t-70 28z" glyph-name="five.lt"/><glyph d="M168 198q0 -46 28.5 -74.5t74.5 -28.5q44 0 72 28.5t28 74.5q0 48 -28 77t-72 29q-46 0 -74.5 -29t-28.5 -77zM482 459h-124q-19 60 -81 60q-52 0 -85.5 -52t-34.5 -120v-9q16 29 50.5 47t79.5 18q90 0 145 -58.5t55 -143.5q0 -90 -59 -150.5t-158 -60.5q-126 0 -187 111 q-43 77 -43 193q0 146 64 238t172 92q169 0 206 -165z" glyph-name="six.lt"/><glyph d="M477 523l-209 -523h-128l204 502h-302v112h435v-91z" glyph-name="seven.lt"/><glyph d="M261 91q44 0 72.5 23.5t28.5 63.5t-28.5 63.5t-72.5 23.5q-43 0 -71 -23.5t-28 -63.5t28.5 -63.5t70.5 -23.5zM261 369q36 0 61.5 21t25.5 56q0 36 -25.5 57.5t-61.5 21.5q-35 0 -60 -21.5t-25 -57.5q0 -35 25 -56t60 -21zM261 -10q-95 0 -158 48t-63 130q0 56 30.5 95 t76.5 52q-40 17 -64 53t-24 83q0 81 58.5 127t143.5 46q86 0 145 -46t59 -127q0 -47 -24.5 -83t-64.5 -53q46 -13 77 -52t31 -95q0 -82 -63.5 -130t-159.5 -48z" glyph-name="eight.lt"/><glyph d="M352 416q0 46 -28.5 74.5t-74.5 28.5q-44 0 -72 -28.5t-28 -74.5q0 -48 28 -77t72 -29q46 0 74.5 29t28.5 77zM38 155h124q19 -60 81 -60q52 0 85.5 52t34.5 120v9q-16 -29 -50.5 -47t-79.5 -18q-90 0 -145 58.5t-55 143.5q0 90 59 150.5t158 60.5q126 0 187 -111 q43 -77 43 -193q0 -146 -64 -238t-172 -92q-169 0 -206 165z" glyph-name="nine.lt"/><glyph d="M51 73q0 34 23 56.5t56 22.5t55.5 -22.5t22.5 -56.5t-22.5 -57t-55.5 -23t-56 23t-23 57z" glyph-name="period.tab" horiz-adv-x="260"/><glyph d="M39 -109l73 112q-26 5 -43.5 24t-17.5 48q0 33 23 54.5t56 21.5q34 0 56 -22.5t22 -62.5q0 -43 -33 -90l-56 -85h-80z" glyph-name="comma.tab" horiz-adv-x="260"/><glyph d="M52 73q0 34 22.5 56.5t55.5 22.5t55.5 -22.5t22.5 -56.5t-22.5 -57t-55.5 -23t-55.5 23t-22.5 57zM52 358q0 34 22.5 56.5t55.5 22.5t55.5 -22.5t22.5 -56.5t-22.5 -57t-55.5 -23t-55.5 23t-22.5 57z" glyph-name="colon.tab" horiz-adv-x="260"/><glyph d="M39 -109l73 112q-26 5 -43 24t-17 48q0 33 22.5 54.5t55.5 21.5q34 0 56 -22.5t22 -62.5q0 -42 -32 -90l-57 -85h-80zM52 358q0 34 22.5 56.5t55.5 22.5t55.5 -22.5t22.5 -56.5t-22.5 -57t-55.5 -23t-55.5 23t-22.5 57z" glyph-name="semicolon.tab" horiz-adv-x="260"/><glyph glyph-name="space.tab" horiz-adv-x="260"/><glyph d="M20 501q0 51 35.5 87t85.5 36q52 0 87.5 -36t35.5 -87q0 -50 -35.5 -85.5t-87.5 -35.5q-50 0 -85.5 35.5t-35.5 85.5zM91 501q0 -21 14.5 -35.5t35.5 -14.5q22 0 37 14.5t15 35.5q0 22 -15 37t-37 15q-21 0 -35.5 -15t-14.5 -37zM500 113q0 -51 -35.5 -87t-85.5 -36 q-52 0 -87.5 36t-35.5 87q0 50 35.5 85.5t87.5 35.5q50 0 85.5 -35.5t35.5 -85.5zM429 113q0 21 -14.5 35.5t-35.5 14.5q-22 0 -37 -14.5t-15 -35.5q0 -22 15 -37t37 -15q21 0 35.5 15t14.5 37zM31 0l375 614h83l-375 -614h-83z" glyph-name="percent.lt"/><glyph d="M35 0l385 614h83l-385 -614h-83zM100 501q0 -21 14.5 -35.5t36.5 -14.5q21 0 36 14.5t15 35.5q0 22 -15 37t-36 15q-22 0 -36.5 -15t-14.5 -37zM510 113q0 -51 -36 -87t-86 -36q-51 0 -87 36t-36 87q0 50 36 85.5t87 35.5q50 0 86 -35.5t36 -85.5zM438 113 q0 21 -14.5 35.5t-35.5 14.5q-22 0 -37 -14.5t-15 -35.5q0 -22 15 -37t37 -15q21 0 35.5 15t14.5 37zM29 501q0 51 35.5 87t86.5 36t86.5 -36t35.5 -87q0 -50 -35.5 -85.5t-86.5 -35.5t-86.5 35.5t-35.5 85.5zM776 113q0 -51 -36 -87t-86 -36q-51 0 -87 36t-36 87 q0 50 36 85.5t87 35.5q50 0 86 -35.5t36 -85.5zM705 113q0 21 -15 35.5t-36 14.5t-36.5 -14.5t-15.5 -35.5q0 -22 15.5 -37t36.5 -15t36 15t15 37z" glyph-name="perthousand.lt" horiz-adv-x="800"/><glyph d="M212 515h96v-168h168v-96h-168v-167h-96v167h-168v96h168v168z" glyph-name="plus.lt"/><glyph d="M44 251v96h432v-96h-432z" glyph-name="minus.lt"/><glyph d="M194 298l-122 120l67 66l120 -121l121 121l67 -66l-121 -120l121 -121l-67 -67l-121 121l-120 -121l-67 67z" glyph-name="multiply.lt"/><glyph d="M44 251v96h432v-96h-432zM189 472q0 29 21 50t50 21t50 -21t21 -50t-21 -49.5t-50 -20.5t-50 20.5t-21 49.5zM189 126q0 29 21 49.5t50 20.5t50 -20.5t21 -49.5t-21 -50t-50 -21t-50 21t-21 50z" glyph-name="divide.lt"/><glyph d="M44 175v87h431v-87h-431zM44 338v88h431v-88h-431z" glyph-name="equal.lt"/><glyph d="M96 236v123l328 152v-108l-240 -106l240 -105v-109z" glyph-name="less.lt"/><glyph d="M424 359v-123l-329 -153v109l240 105l-240 106v108z" glyph-name="greater.lt"/><glyph d="M214 548h91v-130h164v-90h-164v-130h-91v130h-164v90h164v130zM50 62v91h419v-91h-419z" glyph-name="plusminus.lt"/><glyph d="M95 303v117l329 125v-103l-234 -80l234 -80v-102zM95 60v93h329v-93h-329z" glyph-name="lessequal.lt"/><glyph d="M424 420v-117l-329 -123v102l234 80l-234 80v103zM424 153v-93h-329v93h329z" glyph-name="greaterequal.lt"/><glyph d="M44 338v87h257l63 94h83l-63 -94h91v-87h-149l-52 -77h201v-86h-258l-63 -94h-82l62 94h-90v86h148l51 77h-199z" glyph-name="notequal.lt"/><glyph d="M44 312v90q59 38 116 38q37 0 98.5 -18.5t97.5 -18.5q58 0 119 39v-90q-61 -39 -119 -39q-36 0 -97.5 19t-98.5 19q-58 0 -116 -39zM44 159v89q59 39 116 39q37 0 98.5 -19t97.5 -19q60 0 119 39v-90q-60 -38 -119 -38q-36 0 -97.5 18.5t-98.5 18.5q-57 0 -116 -38z" glyph-name="approxequal.lt"/></font>
</defs>
</svg>
